M48
; DRILL file {KiCad 9.0.2} date 2025-12-20T20:47:03+0100
; FORMAT={-:-/ absolute / metric / decimal}
; #@! TF.CreationDate,2025-12-20T20:47:03+01:00
; #@! TF.GenerationSoftware,Kicad,Pcbnew,9.0.2
; #@! TF.FileFunction,Plated,1,2,PTH
FMAT,2
METRIC
; #@! TA.AperFunction,Plated,PTH,ComponentDrill
T1C0.200
; #@! TA.AperFunction,Plated,PTH,ViaDrill
T2C0.300
; #@! TA.AperFunction,Plated,PTH,ComponentDrill
T3C0.750
; #@! TA.AperFunction,Plated,PTH,ComponentDrill
T4C0.900
; #@! TA.AperFunction,Plated,PTH,ComponentDrill
T5C0.950
; #@! TA.AperFunction,Plated,PTH,ComponentDrill
T6C1.000
%
G90
G05
T1
X85.475Y-50.442
X85.475Y-51.968
X86.237Y-49.68
X86.237Y-51.205
X86.237Y-52.73
X87.0Y-50.442
X87.0Y-51.968
X87.763Y-49.68
X87.763Y-51.205
X87.763Y-52.73
X88.525Y-50.442
X88.525Y-51.968
X100.1Y-93.5
X100.1Y-94.7
X100.1Y-95.9
X101.5Y-93.5
X101.5Y-94.7
X101.5Y-95.9
T2
X69.25Y-51.0
X69.25Y-79.0
X69.5Y-83.25
X70.0Y-56.75
X70.0Y-65.5
X70.0Y-71.0
X70.0Y-74.75
X70.0Y-90.75
X70.25Y-94.75
X70.25Y-97.75
X70.5Y-60.25
X73.0Y-95.75
X73.25Y-79.75
X73.75Y-100.5
X74.0Y-84.75
X74.5Y-57.25
X74.75Y-60.25
X75.0Y-65.0
X75.0Y-91.5
X75.25Y-69.25
X75.25Y-75.25
X75.5Y-103.25
X76.0Y-43.75
X76.0Y-93.0
X76.25Y-97.75
X77.0Y-48.75
X77.25Y-88.0
X78.0Y-82.0
X78.0Y-99.0
X78.5Y-84.0
X78.75Y-85.75
X79.0Y-80.5
X79.0Y-90.25
X79.75Y-100.5
X80.5Y-46.5
X80.5Y-49.0
X80.5Y-74.25
X80.5Y-78.75
X80.5Y-83.75
X80.75Y-61.5
X81.0Y-45.0
X81.25Y-55.75
X81.25Y-91.5
X81.75Y-67.75
X82.0Y-83.5
X82.0Y-93.25
X82.0Y-98.0
X82.25Y-76.25
X82.5Y-81.75
X82.5Y-105.5
X82.75Y-86.0
X82.75Y-89.0
X83.0Y-45.25
X83.25Y-50.75
X83.5Y-47.5
X84.25Y-65.0
X84.25Y-85.75
X84.25Y-95.5
X84.75Y-59.0
X85.25Y-85.75
X85.5Y-63.25
X85.5Y-84.5
X86.0Y-93.5
X86.0Y-94.5
X86.0Y-99.0
X86.095Y-102.75
X86.5Y-65.5
X87.0Y-56.75
X87.0Y-96.0
X87.5Y-68.0
X87.5Y-73.5
X87.5Y-81.75
X87.5Y-84.5
X88.0Y-93.5
X88.0Y-96.0
X88.25Y-47.25
X88.5Y-59.0
X88.5Y-60.0
X88.5Y-65.5
X88.75Y-101.25
X89.575Y-53.875
X89.575Y-56.125
X89.75Y-45.0
X89.75Y-84.5
X89.75Y-85.5
X90.0Y-75.25
X90.0Y-81.0
X90.375Y-99.65
X90.425Y-53.875
X90.425Y-56.125
X90.5Y-89.0
X91.0Y-65.5
X91.5Y-53.5
X92.0Y-65.5
X92.25Y-95.25
X92.25Y-97.25
X92.25Y-104.75
X92.75Y-73.5
X93.0Y-68.0
X93.0Y-78.25
X93.0Y-82.0
X93.0Y-84.75
X93.0Y-85.5
X93.75Y-55.75
X93.75Y-97.5
X94.0Y-50.5
X94.0Y-65.5
X94.0Y-95.25
X94.25Y-105.5
X94.5Y-48.5
X94.5Y-51.75
X95.0Y-56.5
X95.0Y-58.0
X95.0Y-60.5
X95.0Y-95.5
X95.0Y-96.75
X95.25Y-92.5
X95.5Y-67.75
X95.5Y-81.75
X95.5Y-85.0
X95.5Y-85.75
X95.5Y-101.25
X95.75Y-75.25
X95.75Y-91.5
X96.25Y-94.5
X96.75Y-98.0
X97.75Y-84.75
X97.75Y-85.75
X98.0Y-83.5
X98.75Y-53.5
X99.25Y-102.75
X99.5Y-58.25
X99.5Y-67.0
X99.75Y-46.0
X99.75Y-73.5
X100.0Y-43.5
X100.25Y-84.75
X100.25Y-86.0
X100.25Y-86.75
X100.75Y-51.0
X100.75Y-81.0
X101.5Y-44.825
X101.5Y-102.25
X102.0Y-51.0
X102.0Y-56.5
X103.0Y-97.0
X103.0Y-100.5
X103.5Y-88.75
X103.75Y-105.5
X104.0Y-52.5
X104.25Y-43.5
X104.25Y-58.75
X104.75Y-68.0
X105.5Y-47.5
X105.5Y-49.0
X106.0Y-53.25
X106.25Y-83.25
X106.5Y-74.25
X106.5Y-105.5
X106.75Y-55.75
X106.75Y-92.25
X106.75Y-100.75
X107.0Y-45.0
T3
X77.0Y-112.95
X77.95Y-93.0
X77.95Y-95.0
X77.95Y-97.0
X79.0Y-112.95
X83.0Y-92.0
X85.0Y-92.0
X87.0Y-92.0
X89.0Y-92.0
X91.0Y-92.0
X93.0Y-92.0
T4
X86.095Y-113.5
X87.365Y-113.5
X88.635Y-113.5
X89.905Y-113.5
T5
X103.5Y-71.5
X103.5Y-74.0
X103.5Y-76.5
X103.5Y-79.0
T6
X73.0Y-69.42
X73.0Y-71.96
X73.0Y-74.5
X73.0Y-77.04
X79.11Y-88.0
X81.65Y-88.0
X84.19Y-88.0
X86.73Y-88.0
X89.27Y-88.0
X91.81Y-88.0
X94.35Y-88.0
X96.89Y-88.0
M30
