%TF.GenerationSoftware,KiCad,Pcbnew,9.0.2*%
%TF.CreationDate,2025-12-20T20:47:09+01:00*%
%TF.ProjectId,Home sensor ESP32,486f6d65-2073-4656-9e73-6f7220455350,rev?*%
%TF.SameCoordinates,Original*%
%TF.FileFunction,Legend,Bot*%
%TF.FilePolarity,Positive*%
%FSLAX46Y46*%
G04 Gerber Fmt 4.6, Leading zero omitted, Abs format (unit mm)*
G04 Created by KiCad (PCBNEW 9.0.2) date 2025-12-20 20:47:09*
%MOMM*%
%LPD*%
G01*
G04 APERTURE LIST*
%ADD10C,0.150000*%
%ADD11C,0.120000*%
%ADD12C,0.203200*%
G04 APERTURE END LIST*
D10*
X78333333Y-114954819D02*
X78333333Y-115669104D01*
X78333333Y-115669104D02*
X78380952Y-115811961D01*
X78380952Y-115811961D02*
X78476190Y-115907200D01*
X78476190Y-115907200D02*
X78619047Y-115954819D01*
X78619047Y-115954819D02*
X78714285Y-115954819D01*
X77904761Y-115050057D02*
X77857142Y-115002438D01*
X77857142Y-115002438D02*
X77761904Y-114954819D01*
X77761904Y-114954819D02*
X77523809Y-114954819D01*
X77523809Y-114954819D02*
X77428571Y-115002438D01*
X77428571Y-115002438D02*
X77380952Y-115050057D01*
X77380952Y-115050057D02*
X77333333Y-115145295D01*
X77333333Y-115145295D02*
X77333333Y-115240533D01*
X77333333Y-115240533D02*
X77380952Y-115383390D01*
X77380952Y-115383390D02*
X77952380Y-115954819D01*
X77952380Y-115954819D02*
X77333333Y-115954819D01*
X106716485Y-42613809D02*
X106678390Y-42537619D01*
X106678390Y-42537619D02*
X106602200Y-42461428D01*
X106602200Y-42461428D02*
X106487914Y-42347142D01*
X106487914Y-42347142D02*
X106449819Y-42270952D01*
X106449819Y-42270952D02*
X106449819Y-42194761D01*
X106640295Y-42232857D02*
X106602200Y-42156666D01*
X106602200Y-42156666D02*
X106526009Y-42080476D01*
X106526009Y-42080476D02*
X106373628Y-42042380D01*
X106373628Y-42042380D02*
X106106961Y-42042380D01*
X106106961Y-42042380D02*
X105954580Y-42080476D01*
X105954580Y-42080476D02*
X105878390Y-42156666D01*
X105878390Y-42156666D02*
X105840295Y-42232857D01*
X105840295Y-42232857D02*
X105840295Y-42385238D01*
X105840295Y-42385238D02*
X105878390Y-42461428D01*
X105878390Y-42461428D02*
X105954580Y-42537619D01*
X105954580Y-42537619D02*
X106106961Y-42575714D01*
X106106961Y-42575714D02*
X106373628Y-42575714D01*
X106373628Y-42575714D02*
X106526009Y-42537619D01*
X106526009Y-42537619D02*
X106602200Y-42461428D01*
X106602200Y-42461428D02*
X106640295Y-42385238D01*
X106640295Y-42385238D02*
X106640295Y-42232857D01*
X106640295Y-43337618D02*
X106640295Y-42880475D01*
X106640295Y-43109047D02*
X105840295Y-43109047D01*
X105840295Y-43109047D02*
X105954580Y-43032856D01*
X105954580Y-43032856D02*
X106030771Y-42956666D01*
X106030771Y-42956666D02*
X106068866Y-42880475D01*
X95261904Y-53354819D02*
X95261904Y-54164342D01*
X95261904Y-54164342D02*
X95214285Y-54259580D01*
X95214285Y-54259580D02*
X95166666Y-54307200D01*
X95166666Y-54307200D02*
X95071428Y-54354819D01*
X95071428Y-54354819D02*
X94880952Y-54354819D01*
X94880952Y-54354819D02*
X94785714Y-54307200D01*
X94785714Y-54307200D02*
X94738095Y-54259580D01*
X94738095Y-54259580D02*
X94690476Y-54164342D01*
X94690476Y-54164342D02*
X94690476Y-53354819D01*
X93785714Y-53688152D02*
X93785714Y-54354819D01*
X94023809Y-53307200D02*
X94261904Y-54021485D01*
X94261904Y-54021485D02*
X93642857Y-54021485D01*
X106188485Y-44923809D02*
X106150390Y-44847619D01*
X106150390Y-44847619D02*
X106074200Y-44771428D01*
X106074200Y-44771428D02*
X105959914Y-44657142D01*
X105959914Y-44657142D02*
X105921819Y-44580952D01*
X105921819Y-44580952D02*
X105921819Y-44504761D01*
X106112295Y-44542857D02*
X106074200Y-44466666D01*
X106074200Y-44466666D02*
X105998009Y-44390476D01*
X105998009Y-44390476D02*
X105845628Y-44352380D01*
X105845628Y-44352380D02*
X105578961Y-44352380D01*
X105578961Y-44352380D02*
X105426580Y-44390476D01*
X105426580Y-44390476D02*
X105350390Y-44466666D01*
X105350390Y-44466666D02*
X105312295Y-44542857D01*
X105312295Y-44542857D02*
X105312295Y-44695238D01*
X105312295Y-44695238D02*
X105350390Y-44771428D01*
X105350390Y-44771428D02*
X105426580Y-44847619D01*
X105426580Y-44847619D02*
X105578961Y-44885714D01*
X105578961Y-44885714D02*
X105845628Y-44885714D01*
X105845628Y-44885714D02*
X105998009Y-44847619D01*
X105998009Y-44847619D02*
X106074200Y-44771428D01*
X106074200Y-44771428D02*
X106112295Y-44695238D01*
X106112295Y-44695238D02*
X106112295Y-44542857D01*
X105388485Y-45190475D02*
X105350390Y-45228571D01*
X105350390Y-45228571D02*
X105312295Y-45304761D01*
X105312295Y-45304761D02*
X105312295Y-45495237D01*
X105312295Y-45495237D02*
X105350390Y-45571428D01*
X105350390Y-45571428D02*
X105388485Y-45609523D01*
X105388485Y-45609523D02*
X105464676Y-45647618D01*
X105464676Y-45647618D02*
X105540866Y-45647618D01*
X105540866Y-45647618D02*
X105655152Y-45609523D01*
X105655152Y-45609523D02*
X106112295Y-45152380D01*
X106112295Y-45152380D02*
X106112295Y-45647618D01*
X88333333Y-88904819D02*
X88333333Y-89619104D01*
X88333333Y-89619104D02*
X88380952Y-89761961D01*
X88380952Y-89761961D02*
X88476190Y-89857200D01*
X88476190Y-89857200D02*
X88619047Y-89904819D01*
X88619047Y-89904819D02*
X88714285Y-89904819D01*
X87428571Y-89238152D02*
X87428571Y-89904819D01*
X87666666Y-88857200D02*
X87904761Y-89571485D01*
X87904761Y-89571485D02*
X87285714Y-89571485D01*
D11*
%TO.C,J2*%
X74940000Y-106590000D02*
X81060000Y-106590000D01*
X74940000Y-112810000D02*
X75860000Y-112810000D01*
X74940000Y-114410000D02*
X74940000Y-106590000D01*
X75700000Y-108850000D02*
X76700000Y-108850000D01*
X75700000Y-110450000D02*
X75700000Y-108850000D01*
X75860000Y-112810000D02*
X75860000Y-114410000D01*
X75860000Y-114410000D02*
X74940000Y-114410000D01*
X76140000Y-112810000D02*
X75860000Y-112810000D01*
X76140000Y-112810000D02*
X76140000Y-114025000D01*
X76200000Y-108850000D02*
X76200000Y-106590000D01*
X76700000Y-108850000D02*
X76700000Y-106590000D01*
X76700000Y-108850000D02*
X76700000Y-110450000D01*
X76700000Y-110450000D02*
X75700000Y-110450000D01*
X77500000Y-106590000D02*
X77500000Y-110950000D01*
X77500000Y-110950000D02*
X78500000Y-110950000D01*
X78500000Y-110950000D02*
X78500000Y-106590000D01*
X79300000Y-108850000D02*
X79300000Y-110450000D01*
X79300000Y-110450000D02*
X80300000Y-110450000D01*
X80140000Y-112810000D02*
X79860000Y-112810000D01*
X80140000Y-114410000D02*
X80140000Y-112810000D01*
X80300000Y-108850000D02*
X79300000Y-108850000D01*
X80300000Y-110450000D02*
X80300000Y-108850000D01*
X81060000Y-106590000D02*
X81060000Y-114410000D01*
X81060000Y-112810000D02*
X80140000Y-112810000D01*
X81060000Y-114410000D02*
X80140000Y-114410000D01*
D12*
%TO.C,Q1*%
X104347600Y-47922400D02*
X105160400Y-47922400D01*
X105160400Y-45077600D02*
X104347600Y-45077600D01*
X105160400Y-45736400D02*
X105160400Y-45077600D01*
X105160400Y-47922400D02*
X105160400Y-47263600D01*
D11*
%TO.C,U4*%
X94500000Y-42940000D02*
X92550000Y-42940000D01*
X94500000Y-42940000D02*
X96450000Y-42940000D01*
X94500000Y-53060000D02*
X92550000Y-53060000D01*
X94500000Y-53060000D02*
X96450000Y-53060000D01*
X92040000Y-53335000D02*
X91560000Y-53335000D01*
X91800000Y-53005000D01*
X92040000Y-53335000D01*
G36*
X92040000Y-53335000D02*
G01*
X91560000Y-53335000D01*
X91800000Y-53005000D01*
X92040000Y-53335000D01*
G37*
D12*
%TO.C,Q2*%
X104347600Y-51422400D02*
X105160400Y-51422400D01*
X105160400Y-48577600D02*
X104347600Y-48577600D01*
X105160400Y-49236400D02*
X105160400Y-48577600D01*
X105160400Y-51422400D02*
X105160400Y-50763600D01*
D11*
%TO.C,J4*%
X80940000Y-90540000D02*
X81860000Y-90540000D01*
X80940000Y-92140000D02*
X81860000Y-92140000D01*
X80940000Y-98360000D02*
X80940000Y-90540000D01*
X81700000Y-94500000D02*
X81700000Y-96100000D01*
X81700000Y-96100000D02*
X82700000Y-96100000D01*
X81860000Y-90540000D02*
X81860000Y-92140000D01*
X81860000Y-92140000D02*
X82140000Y-92140000D01*
X82700000Y-94500000D02*
X81700000Y-94500000D01*
X82700000Y-96100000D02*
X82700000Y-94500000D01*
X83500000Y-94000000D02*
X83500000Y-98360000D01*
X92500000Y-94000000D02*
X83500000Y-94000000D01*
X92500000Y-98360000D02*
X92500000Y-94000000D01*
X93300000Y-94500000D02*
X94300000Y-94500000D01*
X93300000Y-96100000D02*
X93300000Y-94500000D01*
X93300000Y-96100000D02*
X93300000Y-98360000D01*
X93800000Y-96100000D02*
X93800000Y-98360000D01*
X93860000Y-92140000D02*
X93860000Y-90925000D01*
X93860000Y-92140000D02*
X94140000Y-92140000D01*
X94140000Y-90540000D02*
X95060000Y-90540000D01*
X94140000Y-92140000D02*
X94140000Y-90540000D01*
X94300000Y-94500000D02*
X94300000Y-96100000D01*
X94300000Y-96100000D02*
X93300000Y-96100000D01*
X95060000Y-90540000D02*
X95060000Y-98360000D01*
X95060000Y-92140000D02*
X94140000Y-92140000D01*
X95060000Y-98360000D02*
X80940000Y-98360000D01*
%TD*%
M02*
