%TF.GenerationSoftware,KiCad,Pcbnew,9.0.2*%
%TF.CreationDate,2025-12-20T20:47:09+01:00*%
%TF.ProjectId,Home sensor ESP32,486f6d65-2073-4656-9e73-6f7220455350,rev?*%
%TF.SameCoordinates,Original*%
%TF.FileFunction,Copper,L2,Bot*%
%TF.FilePolarity,Positive*%
%FSLAX46Y46*%
G04 Gerber Fmt 4.6, Leading zero omitted, Abs format (unit mm)*
G04 Created by KiCad (PCBNEW 9.0.2) date 2025-12-20 20:47:09*
%MOMM*%
%LPD*%
G01*
G04 APERTURE LIST*
G04 Aperture macros list*
%AMRoundRect*
0 Rectangle with rounded corners*
0 $1 Rounding radius*
0 $2 $3 $4 $5 $6 $7 $8 $9 X,Y pos of 4 corners*
0 Add a 4 corners polygon primitive as box body*
4,1,4,$2,$3,$4,$5,$6,$7,$8,$9,$2,$3,0*
0 Add four circle primitives for the rounded corners*
1,1,$1+$1,$2,$3*
1,1,$1+$1,$4,$5*
1,1,$1+$1,$6,$7*
1,1,$1+$1,$8,$9*
0 Add four rect primitives between the rounded corners*
20,1,$1+$1,$2,$3,$4,$5,0*
20,1,$1+$1,$4,$5,$6,$7,0*
20,1,$1+$1,$6,$7,$8,$9,0*
20,1,$1+$1,$8,$9,$2,$3,0*%
G04 Aperture macros list end*
%TA.AperFunction,HeatsinkPad*%
%ADD10C,0.500000*%
%TD*%
%TA.AperFunction,HeatsinkPad*%
%ADD11R,1.900000X2.900000*%
%TD*%
%TA.AperFunction,ComponentPad*%
%ADD12R,1.700000X1.700000*%
%TD*%
%TA.AperFunction,ComponentPad*%
%ADD13C,1.700000*%
%TD*%
%TA.AperFunction,ComponentPad*%
%ADD14RoundRect,0.250000X-0.625000X0.350000X-0.625000X-0.350000X0.625000X-0.350000X0.625000X0.350000X0*%
%TD*%
%TA.AperFunction,ComponentPad*%
%ADD15O,1.750000X1.200000*%
%TD*%
%TA.AperFunction,HeatsinkPad*%
%ADD16C,0.600000*%
%TD*%
%TA.AperFunction,ComponentPad*%
%ADD17R,1.070000X1.800000*%
%TD*%
%TA.AperFunction,ComponentPad*%
%ADD18O,1.070000X1.800000*%
%TD*%
%TA.AperFunction,ComponentPad*%
%ADD19RoundRect,0.250000X-0.725000X0.600000X-0.725000X-0.600000X0.725000X-0.600000X0.725000X0.600000X0*%
%TD*%
%TA.AperFunction,ComponentPad*%
%ADD20O,1.950000X1.700000*%
%TD*%
%TA.AperFunction,ComponentPad*%
%ADD21RoundRect,0.250000X-0.350000X-0.625000X0.350000X-0.625000X0.350000X0.625000X-0.350000X0.625000X0*%
%TD*%
%TA.AperFunction,ComponentPad*%
%ADD22O,1.200000X1.750000*%
%TD*%
%TA.AperFunction,SMDPad,CuDef*%
%ADD23R,1.400000X1.000000*%
%TD*%
%TA.AperFunction,SMDPad,CuDef*%
%ADD24RoundRect,0.150000X-0.825000X-0.150000X0.825000X-0.150000X0.825000X0.150000X-0.825000X0.150000X0*%
%TD*%
%TA.AperFunction,ComponentPad*%
%ADD25RoundRect,0.250000X0.350000X0.625000X-0.350000X0.625000X-0.350000X-0.625000X0.350000X-0.625000X0*%
%TD*%
%TA.AperFunction,ViaPad*%
%ADD26C,0.500000*%
%TD*%
%TA.AperFunction,ViaPad*%
%ADD27C,0.600000*%
%TD*%
%TA.AperFunction,Conductor*%
%ADD28C,0.400000*%
%TD*%
%TA.AperFunction,Conductor*%
%ADD29C,0.200000*%
%TD*%
%TA.AperFunction,Conductor*%
%ADD30C,0.300000*%
%TD*%
G04 APERTURE END LIST*
D10*
%TO.P,U3,9,EPAD*%
%TO.N,GND*%
X100100000Y-93500000D03*
X100100000Y-94700000D03*
X100100000Y-95900000D03*
D11*
X100800000Y-94700000D03*
D10*
X101500000Y-93500000D03*
X101500000Y-94700000D03*
X101500000Y-95900000D03*
%TD*%
D12*
%TO.P,J3,1,Pin_1*%
%TO.N,+3.3V*%
X73000000Y-69420000D03*
D13*
%TO.P,J3,2,Pin_2*%
%TO.N,GND*%
X73000000Y-71960000D03*
%TO.P,J3,3,Pin_3*%
%TO.N,IN1*%
X73000000Y-74500000D03*
%TO.P,J3,4,Pin_4*%
%TO.N,IN2*%
X73000000Y-77040000D03*
%TD*%
D12*
%TO.P,J5,1,Pin_1*%
%TO.N,BUSY*%
X96890000Y-88000000D03*
D13*
%TO.P,J5,2,Pin_2*%
%TO.N,RES*%
X94350000Y-88000000D03*
%TO.P,J5,3,Pin_3*%
%TO.N,D{slash}C*%
X91810000Y-88000000D03*
%TO.P,J5,4,Pin_4*%
%TO.N,CS*%
X89270000Y-88000000D03*
%TO.P,J5,5,Pin_5*%
%TO.N,SCLK*%
X86730000Y-88000000D03*
%TO.P,J5,6,Pin_6*%
%TO.N,SDI*%
X84190000Y-88000000D03*
%TO.P,J5,7,Pin_7*%
%TO.N,GND*%
X81650000Y-88000000D03*
%TO.P,J5,8,Pin_8*%
%TO.N,+3.3V*%
X79110000Y-88000000D03*
%TD*%
D14*
%TO.P,SW1,1,A*%
%TO.N,+BATT*%
X77950000Y-93000000D03*
D15*
%TO.P,SW1,2,B*%
%TO.N,Net-(J2-Pin_1)*%
X77950000Y-95000000D03*
%TO.P,SW1,3,C*%
%TO.N,unconnected-(SW1-C-Pad3)*%
X77950000Y-97000000D03*
%TD*%
D16*
%TO.P,U1,39,GND*%
%TO.N,GND*%
X85475000Y-50442500D03*
X85475000Y-51967500D03*
X86237500Y-49680000D03*
X86237500Y-51205000D03*
X86237500Y-52730000D03*
X87000000Y-50442500D03*
X87000000Y-51967500D03*
X87762500Y-49680000D03*
X87762500Y-51205000D03*
X87762500Y-52730000D03*
X88525000Y-50442500D03*
X88525000Y-51967500D03*
%TD*%
D17*
%TO.P,D3,1,BA*%
%TO.N,Net-(D3-BA)*%
X86095000Y-113500000D03*
D18*
%TO.P,D3,2,GA*%
%TO.N,Net-(D3-GA)*%
X87365000Y-113500000D03*
%TO.P,D3,3,K*%
%TO.N,GND*%
X88635000Y-113500000D03*
%TO.P,D3,4,RA*%
%TO.N,Net-(D3-RA)*%
X89905000Y-113500000D03*
%TD*%
D19*
%TO.P,J6,1,Pin_1*%
%TO.N,SDA*%
X103500000Y-71500000D03*
D20*
%TO.P,J6,2,Pin_2*%
%TO.N,SCL*%
X103500000Y-74000000D03*
%TO.P,J6,3,Pin_3*%
%TO.N,GND*%
X103500000Y-76500000D03*
%TO.P,J6,4,Pin_4*%
%TO.N,+3.3V*%
X103500000Y-79000000D03*
%TD*%
D21*
%TO.P,J2,1,Pin_1*%
%TO.N,Net-(J2-Pin_1)*%
X77000000Y-112950000D03*
D22*
%TO.P,J2,2,Pin_2*%
%TO.N,GND*%
X79000000Y-112950000D03*
%TD*%
D23*
%TO.P,Q1,1*%
%TO.N,Net-(Q1-Pad1)*%
X103400000Y-47450000D03*
%TO.P,Q1,2*%
%TO.N,DTR*%
X103400000Y-45550000D03*
%TO.P,Q1,3*%
%TO.N,GPIO0*%
X105600000Y-46500000D03*
%TD*%
D24*
%TO.P,U4,1,GND*%
%TO.N,GND*%
X92025000Y-52445000D03*
%TO.P,U4,2,TXD*%
%TO.N,TXD*%
X92025000Y-51175000D03*
%TO.P,U4,3,RXD*%
%TO.N,RXD*%
X92025000Y-49905000D03*
%TO.P,U4,4,V3*%
%TO.N,+3.3V*%
X92025000Y-48635000D03*
%TO.P,U4,5,UD+*%
%TO.N,D+*%
X92025000Y-47365000D03*
%TO.P,U4,6,UD-*%
%TO.N,D-*%
X92025000Y-46095000D03*
%TO.P,U4,7,XI*%
%TO.N,unconnected-(U4-XI-Pad7)*%
X92025000Y-44825000D03*
%TO.P,U4,8,XO*%
%TO.N,unconnected-(U4-XO-Pad8)*%
X92025000Y-43555000D03*
%TO.P,U4,9,~{CTS}*%
%TO.N,unconnected-(U4-~{CTS}-Pad9)*%
X96975000Y-43555000D03*
%TO.P,U4,10,~{DSR}*%
%TO.N,DTR*%
X96975000Y-44825000D03*
%TO.P,U4,11,~{RI}*%
%TO.N,unconnected-(U4-~{RI}-Pad11)*%
X96975000Y-46095000D03*
%TO.P,U4,12,~{DCD}*%
%TO.N,unconnected-(U4-~{DCD}-Pad12)*%
X96975000Y-47365000D03*
%TO.P,U4,13,~{DTR}*%
%TO.N,unconnected-(U4-~{DTR}-Pad13)*%
X96975000Y-48635000D03*
%TO.P,U4,14,~{RTS}*%
%TO.N,RST*%
X96975000Y-49905000D03*
%TO.P,U4,15,R232*%
%TO.N,unconnected-(U4-R232-Pad15)*%
X96975000Y-51175000D03*
%TO.P,U4,16,VCC*%
%TO.N,+3.3V*%
X96975000Y-52445000D03*
%TD*%
D23*
%TO.P,Q2,1*%
%TO.N,Net-(Q2-Pad1)*%
X103400000Y-50950000D03*
%TO.P,Q2,2*%
%TO.N,RST*%
X103400000Y-49050000D03*
%TO.P,Q2,3*%
%TO.N,EN*%
X105600000Y-50000000D03*
%TD*%
D25*
%TO.P,J4,1,Pin_1*%
%TO.N,GND*%
X93000000Y-92000000D03*
D22*
%TO.P,J4,2,Pin_2*%
%TO.N,D+*%
X91000000Y-92000000D03*
%TO.P,J4,3,Pin_3*%
%TO.N,D-*%
X89000000Y-92000000D03*
%TO.P,J4,4,Pin_4*%
%TO.N,Net-(J4-Pin_4)*%
X87000000Y-92000000D03*
%TO.P,J4,5,Pin_5*%
%TO.N,Net-(J4-Pin_5)*%
X85000000Y-92000000D03*
%TO.P,J4,6,Pin_6*%
%TO.N,VCC*%
X83000000Y-92000000D03*
%TD*%
D26*
%TO.N,VCC*%
X90375000Y-99650000D03*
D27*
%TO.N,GND*%
X104750000Y-68000000D03*
X82500000Y-105500000D03*
X75000000Y-91500000D03*
X70250000Y-97750000D03*
X75000000Y-65000000D03*
X76000000Y-43750000D03*
X100750000Y-81000000D03*
X95500000Y-101250000D03*
X94000000Y-95250000D03*
X82750000Y-89000000D03*
X70000000Y-65500000D03*
X82500000Y-81750000D03*
X92250000Y-97250000D03*
X103000000Y-100500000D03*
X95000000Y-95500000D03*
X99500000Y-67000000D03*
X84250000Y-95500000D03*
X75500000Y-103250000D03*
X82000000Y-83500000D03*
X93000000Y-82000000D03*
X74750000Y-60250000D03*
X87500000Y-73500000D03*
X73000000Y-95750000D03*
D26*
X86000000Y-99000000D03*
D27*
X82000000Y-98000000D03*
X104250000Y-58750000D03*
X79750000Y-100500000D03*
X89750000Y-84500000D03*
X78000000Y-82000000D03*
X84250000Y-85750000D03*
X103750000Y-105500000D03*
X95500000Y-81750000D03*
X80500000Y-74250000D03*
X75250000Y-69250000D03*
X93000000Y-68000000D03*
X87500000Y-68000000D03*
X70250000Y-94750000D03*
X76250000Y-97750000D03*
X70000000Y-90750000D03*
X106750000Y-55750000D03*
X80500000Y-49000000D03*
X97750000Y-84750000D03*
X75250000Y-75250000D03*
X107000000Y-45000000D03*
X95250000Y-92500000D03*
X70000000Y-56750000D03*
D26*
X91500000Y-53500000D03*
D27*
X106000000Y-53250000D03*
X84750000Y-59000000D03*
X100250000Y-86750000D03*
X95500000Y-85750000D03*
X69250000Y-79000000D03*
X106250000Y-83250000D03*
X92250000Y-104750000D03*
X73250000Y-79750000D03*
X92750000Y-73500000D03*
X81250000Y-91500000D03*
X93000000Y-84750000D03*
X82250000Y-76250000D03*
X69250000Y-51000000D03*
X70000000Y-71000000D03*
X87000000Y-56750000D03*
X93000000Y-85500000D03*
X88250000Y-47250000D03*
X82750000Y-86000000D03*
X103500000Y-88750000D03*
X94500000Y-51750000D03*
X84250000Y-65000000D03*
X85500000Y-63250000D03*
X99250000Y-102750000D03*
X95750000Y-75250000D03*
X93750000Y-97500000D03*
X100000000Y-43500000D03*
X83250000Y-50750000D03*
X77000000Y-48750000D03*
X96250000Y-94500000D03*
X88750000Y-101250000D03*
X106500000Y-74250000D03*
X80500000Y-83750000D03*
X74500000Y-57250000D03*
X93000000Y-78250000D03*
X99750000Y-73500000D03*
X78500000Y-84000000D03*
X86000000Y-94500000D03*
X98750000Y-53500000D03*
X80750000Y-61500000D03*
X81250000Y-55750000D03*
X96750000Y-98000000D03*
X94250000Y-105500000D03*
X83000000Y-45250000D03*
X89750000Y-45000000D03*
X97750000Y-85750000D03*
X100750000Y-51000000D03*
X69500000Y-83250000D03*
X106750000Y-100750000D03*
X100250000Y-86000000D03*
X101500000Y-102250000D03*
X104250000Y-43500000D03*
X70000000Y-74750000D03*
X106500000Y-105500000D03*
X79000000Y-80500000D03*
X80500000Y-78750000D03*
X92250000Y-95250000D03*
X100250000Y-84750000D03*
X81750000Y-67750000D03*
X83500000Y-47500000D03*
X90500000Y-89000000D03*
X76000000Y-93000000D03*
X90000000Y-81000000D03*
X88000000Y-96000000D03*
X74000000Y-84750000D03*
X73750000Y-100500000D03*
X87500000Y-81750000D03*
X87500000Y-84500000D03*
X78750000Y-85750000D03*
X95000000Y-96750000D03*
X89750000Y-85500000D03*
X99750000Y-46000000D03*
X106750000Y-92250000D03*
X95500000Y-67750000D03*
X90000000Y-75250000D03*
X104000000Y-52500000D03*
X79000000Y-90250000D03*
X95500000Y-85000000D03*
X70500000Y-60250000D03*
X99500000Y-58250000D03*
X102000000Y-56500000D03*
X95750000Y-91500000D03*
%TO.N,Net-(D3-BA)*%
X86095000Y-102750000D03*
X77250000Y-88000000D03*
X82000000Y-93250000D03*
X78000000Y-99000000D03*
%TO.N,Net-(D3-GA)*%
X85250000Y-85750000D03*
X86000000Y-93500000D03*
%TO.N,Net-(D3-RA)*%
X88000000Y-93500000D03*
X85500000Y-84500000D03*
%TO.N,D+*%
X90425000Y-53875000D03*
X90425000Y-56125000D03*
%TO.N,D-*%
X89575000Y-56125000D03*
X89575000Y-53875000D03*
D26*
%TO.N,+3.3V*%
X98000000Y-83500000D03*
X81000000Y-45000000D03*
%TO.N,Net-(J4-Pin_4)*%
X87000000Y-96000000D03*
%TO.N,Net-(J2-Pin_1)*%
X103000000Y-97000000D03*
D27*
%TO.N,DTR*%
X101500000Y-44825000D03*
%TO.N,Net-(Q1-Pad1)*%
X105500000Y-47500000D03*
%TO.N,GPIO0*%
X95000000Y-60500000D03*
%TO.N,Net-(Q2-Pad1)*%
X102000000Y-51000000D03*
%TO.N,RST*%
X105500000Y-49000000D03*
%TO.N,EN*%
X80500000Y-46500000D03*
%TO.N,RXD*%
X94500000Y-48500000D03*
%TO.N,TXD*%
X94000000Y-50500000D03*
D26*
%TO.N,RES*%
X94000000Y-65500000D03*
X95000000Y-58000000D03*
%TO.N,SDI*%
X86500000Y-65500000D03*
X88500000Y-59000000D03*
%TO.N,CS*%
X93750000Y-55750000D03*
X91000000Y-65500000D03*
%TO.N,D{slash}C*%
X92000000Y-65500000D03*
X95000000Y-56500000D03*
%TO.N,SCLK*%
X88500000Y-60000000D03*
X88500000Y-65500000D03*
%TD*%
D28*
%TO.N,VCC*%
X86269654Y-99651000D02*
X85730346Y-99651000D01*
X90375000Y-99650000D02*
X90400000Y-99625000D01*
X85579346Y-99500000D02*
X84825000Y-99500000D01*
X83000000Y-97675000D02*
X83000000Y-92000000D01*
X85730346Y-99651000D02*
X85579346Y-99500000D01*
X90400000Y-99625000D02*
X90400000Y-99601000D01*
X84825000Y-99500000D02*
X83000000Y-97675000D01*
X86319654Y-99601000D02*
X86269654Y-99651000D01*
X90400000Y-99601000D02*
X86319654Y-99601000D01*
%TO.N,GND*%
X93000000Y-92000000D02*
X93000000Y-98500000D01*
X92025000Y-52975000D02*
X91500000Y-53500000D01*
X92500000Y-99000000D02*
X86000000Y-99000000D01*
X92025000Y-52445000D02*
X92025000Y-52975000D01*
X93000000Y-98500000D02*
X92500000Y-99000000D01*
X82000000Y-98000000D02*
X82000000Y-94950000D01*
X82000000Y-94950000D02*
X74500000Y-87450000D01*
%TO.N,Net-(D3-BA)*%
X78000000Y-100008636D02*
X80741364Y-102750000D01*
X80500000Y-90758636D02*
X80500000Y-91750000D01*
X79290364Y-89549000D02*
X80500000Y-90758636D01*
X77250000Y-88000000D02*
X78799000Y-89549000D01*
X78799000Y-89549000D02*
X79290364Y-89549000D01*
X78000000Y-99000000D02*
X78000000Y-100008636D01*
X80500000Y-91750000D02*
X82000000Y-93250000D01*
X80741364Y-102750000D02*
X86095000Y-102750000D01*
%TO.N,Net-(D3-GA)*%
X85479000Y-85979000D02*
X85250000Y-85750000D01*
X85479000Y-89978182D02*
X85479000Y-85979000D01*
X86000000Y-90499182D02*
X85479000Y-89978182D01*
X86000000Y-93500000D02*
X86000000Y-90499182D01*
%TO.N,Net-(D3-RA)*%
X86250000Y-84500000D02*
X85500000Y-84500000D01*
X88000000Y-86250000D02*
X86250000Y-84500000D01*
X88000000Y-93500000D02*
X88000000Y-91500000D01*
X88000000Y-91500000D02*
X88000000Y-86250000D01*
D29*
%TO.N,D+*%
X99225000Y-81906802D02*
X99225000Y-89593198D01*
X92025000Y-47365000D02*
X91615001Y-46955001D01*
X90425000Y-56125000D02*
X90225000Y-56325000D01*
X91363197Y-46955001D02*
X90225001Y-48093197D01*
X90225000Y-72906802D02*
X99225000Y-81906802D01*
X91411397Y-90225000D02*
X91000000Y-90636397D01*
X91000000Y-90636397D02*
X91000000Y-92000000D01*
X90225000Y-56325000D02*
X90225000Y-72906802D01*
X91615001Y-46955001D02*
X91363197Y-46955001D01*
X98593198Y-90225000D02*
X91411397Y-90225000D01*
X90225001Y-53675001D02*
X90425000Y-53875000D01*
X90225001Y-48093197D02*
X90225001Y-53675001D01*
X99225000Y-89593198D02*
X98593198Y-90225000D01*
%TO.N,D-*%
X97044535Y-80362733D02*
X89775000Y-73093198D01*
X97304936Y-80623134D02*
X97153724Y-80471922D01*
X89775000Y-73093198D02*
X89775000Y-56325000D01*
X89000000Y-92000000D02*
X91225000Y-89775000D01*
X89775000Y-56325000D02*
X89575000Y-56125000D01*
X89774999Y-53675001D02*
X89575000Y-53875000D01*
X98775000Y-89406802D02*
X98775000Y-82093198D01*
X91615001Y-46504999D02*
X91176803Y-46504999D01*
X97153724Y-80471922D02*
X97044535Y-80362733D01*
X92025000Y-46095000D02*
X91615001Y-46504999D01*
X97834177Y-81152375D02*
X97304936Y-80623134D01*
X89774999Y-47906803D02*
X89774999Y-53675001D01*
X91225000Y-89775000D02*
X98406802Y-89775000D01*
X98406802Y-89775000D02*
X98775000Y-89406802D01*
X91176803Y-46504999D02*
X89774999Y-47906803D01*
X98775000Y-82093198D02*
X97834177Y-81152375D01*
D28*
%TO.N,+3.3V*%
X73000000Y-69420000D02*
X74500000Y-70920000D01*
X74500000Y-70920000D02*
X74500000Y-83390000D01*
X94000000Y-47799000D02*
X94790364Y-47799000D01*
X92865000Y-48635000D02*
X93701000Y-47799000D01*
X93701000Y-47799000D02*
X94000000Y-47799000D01*
X95201000Y-51159388D02*
X96486612Y-52445000D01*
X83146000Y-42854000D02*
X81000000Y-45000000D01*
X83610000Y-83500000D02*
X98000000Y-83500000D01*
X94790364Y-47799000D02*
X95201000Y-48209636D01*
X94000000Y-43000000D02*
X93854000Y-42854000D01*
X74500000Y-83390000D02*
X79110000Y-88000000D01*
X94000000Y-47799000D02*
X94000000Y-43000000D01*
X93854000Y-42854000D02*
X83146000Y-42854000D01*
X92025000Y-48635000D02*
X92865000Y-48635000D01*
X96486612Y-52445000D02*
X96975000Y-52445000D01*
X95201000Y-48209636D02*
X95201000Y-51159388D01*
X79110000Y-88000000D02*
X83610000Y-83500000D01*
D30*
%TO.N,Net-(J4-Pin_4)*%
X87000000Y-96000000D02*
X87000000Y-92000000D01*
D28*
%TO.N,Net-(J2-Pin_1)*%
X95790364Y-101951000D02*
X95209636Y-101951000D01*
X103000000Y-97000000D02*
X98250000Y-101750000D01*
X81000000Y-96500000D02*
X79500000Y-95000000D01*
X81000000Y-99186364D02*
X81000000Y-96500000D01*
X82113636Y-100300000D02*
X81000000Y-99186364D01*
X95991364Y-101750000D02*
X95790364Y-101951000D01*
X79500000Y-95000000D02*
X77950000Y-95000000D01*
X95209636Y-101951000D02*
X93558636Y-100300000D01*
X98250000Y-101750000D02*
X95991364Y-101750000D01*
X93558636Y-100300000D02*
X82113636Y-100300000D01*
%TO.N,DTR*%
X103400000Y-45550000D02*
X102675000Y-44825000D01*
X101500000Y-44825000D02*
X96975000Y-44825000D01*
X102675000Y-44825000D02*
X101500000Y-44825000D01*
%TO.N,Net-(Q1-Pad1)*%
X105500000Y-47500000D02*
X103450000Y-47500000D01*
X103450000Y-47500000D02*
X103400000Y-47450000D01*
%TO.N,GPIO0*%
X107000000Y-53500000D02*
X100000000Y-60500000D01*
X100000000Y-60500000D02*
X95000000Y-60500000D01*
X107000000Y-47900000D02*
X107000000Y-53500000D01*
X105600000Y-46500000D02*
X107000000Y-47900000D01*
%TO.N,Net-(Q2-Pad1)*%
X102000000Y-51000000D02*
X103350000Y-51000000D01*
X103350000Y-51000000D02*
X103400000Y-50950000D01*
%TO.N,RST*%
X102545000Y-49905000D02*
X96975000Y-49905000D01*
X105500000Y-49000000D02*
X103450000Y-49000000D01*
X103450000Y-49000000D02*
X103400000Y-49050000D01*
X103400000Y-49050000D02*
X102545000Y-49905000D01*
%TO.N,EN*%
X82000000Y-48000000D02*
X80500000Y-46500000D01*
X105500000Y-52500000D02*
X103000000Y-55000000D01*
X105500000Y-50100000D02*
X105500000Y-52500000D01*
X105600000Y-50000000D02*
X105500000Y-50100000D01*
X85500000Y-55000000D02*
X82000000Y-51500000D01*
X103000000Y-55000000D02*
X85500000Y-55000000D01*
X82000000Y-51500000D02*
X82000000Y-48000000D01*
%TO.N,RXD*%
X93095000Y-49905000D02*
X94500000Y-48500000D01*
X92025000Y-49905000D02*
X93095000Y-49905000D01*
%TO.N,TXD*%
X92025000Y-51175000D02*
X93325000Y-51175000D01*
X93325000Y-51175000D02*
X94000000Y-50500000D01*
%TO.N,RES*%
X94000000Y-59000000D02*
X95000000Y-58000000D01*
X94000000Y-65500000D02*
X94000000Y-59000000D01*
%TO.N,SDI*%
X86500000Y-61000000D02*
X88500000Y-59000000D01*
X86500000Y-65500000D02*
X86500000Y-61000000D01*
%TO.N,CS*%
X93750000Y-55750000D02*
X91000000Y-58500000D01*
X91000000Y-58500000D02*
X91000000Y-65500000D01*
%TO.N,D{slash}C*%
X92000000Y-59000000D02*
X94500000Y-56500000D01*
X92000000Y-65500000D02*
X92000000Y-59000000D01*
X94500000Y-56500000D02*
X95000000Y-56500000D01*
%TO.N,SCLK*%
X88500000Y-65500000D02*
X88500000Y-60000000D01*
%TD*%
%TA.AperFunction,Conductor*%
%TO.N,GND*%
G36*
X82277020Y-42519685D02*
G01*
X82322775Y-42572489D01*
X82332719Y-42641647D01*
X82303694Y-42705203D01*
X82297662Y-42711681D01*
X80713025Y-44296316D01*
X80672799Y-44323195D01*
X80644510Y-44334913D01*
X80644498Y-44334919D01*
X80521584Y-44417048D01*
X80521580Y-44417051D01*
X80417051Y-44521580D01*
X80417048Y-44521584D01*
X80334919Y-44644498D01*
X80334912Y-44644511D01*
X80278343Y-44781082D01*
X80278340Y-44781092D01*
X80249500Y-44926079D01*
X80249500Y-44926082D01*
X80249500Y-45073918D01*
X80249500Y-45073920D01*
X80249499Y-45073920D01*
X80278340Y-45218907D01*
X80278343Y-45218917D01*
X80334912Y-45355488D01*
X80334919Y-45355501D01*
X80417048Y-45478415D01*
X80417051Y-45478419D01*
X80438093Y-45499461D01*
X80471578Y-45560784D01*
X80466594Y-45630476D01*
X80424722Y-45686409D01*
X80374604Y-45708759D01*
X80266508Y-45730261D01*
X80266498Y-45730264D01*
X80120827Y-45790602D01*
X80120814Y-45790609D01*
X79989711Y-45878210D01*
X79989707Y-45878213D01*
X79878213Y-45989707D01*
X79878210Y-45989711D01*
X79790609Y-46120814D01*
X79790602Y-46120827D01*
X79730264Y-46266498D01*
X79730261Y-46266510D01*
X79699500Y-46421153D01*
X79699500Y-46578846D01*
X79730261Y-46733489D01*
X79730264Y-46733501D01*
X79790602Y-46879172D01*
X79790609Y-46879185D01*
X79878210Y-47010288D01*
X79878213Y-47010292D01*
X79989707Y-47121786D01*
X79989711Y-47121789D01*
X80120814Y-47209390D01*
X80120827Y-47209397D01*
X80265187Y-47269192D01*
X80305416Y-47296072D01*
X81263181Y-48253837D01*
X81296666Y-48315160D01*
X81299500Y-48341518D01*
X81299500Y-51431006D01*
X81299500Y-51568994D01*
X81299500Y-51568996D01*
X81299499Y-51568996D01*
X81326418Y-51704322D01*
X81326421Y-51704332D01*
X81379222Y-51831807D01*
X81455887Y-51946545D01*
X81455888Y-51946546D01*
X84955886Y-55446542D01*
X85053456Y-55544112D01*
X85053459Y-55544115D01*
X85168182Y-55620771D01*
X85168195Y-55620778D01*
X85222926Y-55643448D01*
X85222930Y-55643449D01*
X85225418Y-55644480D01*
X85295671Y-55673580D01*
X85308250Y-55676082D01*
X85384575Y-55691264D01*
X85431004Y-55700500D01*
X85431007Y-55700500D01*
X88698800Y-55700500D01*
X88765839Y-55720185D01*
X88811594Y-55772989D01*
X88821538Y-55842147D01*
X88813361Y-55871952D01*
X88805264Y-55891498D01*
X88805261Y-55891510D01*
X88774500Y-56046153D01*
X88774500Y-56203846D01*
X88805261Y-56358489D01*
X88805264Y-56358501D01*
X88865602Y-56504172D01*
X88865609Y-56504185D01*
X88953210Y-56635288D01*
X88953213Y-56635292D01*
X89064706Y-56746785D01*
X89064709Y-56746787D01*
X89064711Y-56746789D01*
X89119391Y-56783325D01*
X89164195Y-56836935D01*
X89174500Y-56886426D01*
X89174500Y-58316080D01*
X89154815Y-58383119D01*
X89102011Y-58428874D01*
X89032853Y-58438818D01*
X88981609Y-58419182D01*
X88855501Y-58334919D01*
X88855488Y-58334912D01*
X88718917Y-58278343D01*
X88718907Y-58278340D01*
X88573920Y-58249500D01*
X88573918Y-58249500D01*
X88426082Y-58249500D01*
X88426080Y-58249500D01*
X88281092Y-58278340D01*
X88281082Y-58278343D01*
X88144511Y-58334912D01*
X88144498Y-58334919D01*
X88021584Y-58417048D01*
X88021580Y-58417051D01*
X87917051Y-58521580D01*
X87917048Y-58521584D01*
X87834919Y-58644498D01*
X87834913Y-58644510D01*
X87823195Y-58672799D01*
X87796316Y-58713025D01*
X85955887Y-60553454D01*
X85936179Y-60582951D01*
X85879223Y-60668191D01*
X85826421Y-60795667D01*
X85826418Y-60795677D01*
X85799500Y-60931004D01*
X85799500Y-65205342D01*
X85790062Y-65252793D01*
X85778341Y-65281090D01*
X85778340Y-65281093D01*
X85749500Y-65426079D01*
X85749500Y-65426082D01*
X85749500Y-65573918D01*
X85749500Y-65573920D01*
X85749499Y-65573920D01*
X85778340Y-65718907D01*
X85778343Y-65718917D01*
X85834912Y-65855488D01*
X85834919Y-65855501D01*
X85917048Y-65978415D01*
X85917051Y-65978419D01*
X86021580Y-66082948D01*
X86021584Y-66082951D01*
X86144498Y-66165080D01*
X86144511Y-66165087D01*
X86281082Y-66221656D01*
X86281087Y-66221658D01*
X86281091Y-66221658D01*
X86281092Y-66221659D01*
X86426079Y-66250500D01*
X86426082Y-66250500D01*
X86573920Y-66250500D01*
X86674503Y-66230492D01*
X86718913Y-66221658D01*
X86855495Y-66165084D01*
X86978416Y-66082951D01*
X87082951Y-65978416D01*
X87165084Y-65855495D01*
X87221658Y-65718913D01*
X87250500Y-65573918D01*
X87250500Y-65426082D01*
X87250500Y-65426079D01*
X87221659Y-65281093D01*
X87221658Y-65281087D01*
X87209937Y-65252790D01*
X87200500Y-65205342D01*
X87200500Y-61341519D01*
X87220185Y-61274480D01*
X87236819Y-61253838D01*
X87587819Y-60902838D01*
X87649142Y-60869353D01*
X87718834Y-60874337D01*
X87774767Y-60916209D01*
X87799184Y-60981673D01*
X87799500Y-60990519D01*
X87799500Y-65205342D01*
X87790062Y-65252793D01*
X87778341Y-65281090D01*
X87778340Y-65281093D01*
X87749500Y-65426079D01*
X87749500Y-65426082D01*
X87749500Y-65573918D01*
X87749500Y-65573920D01*
X87749499Y-65573920D01*
X87778340Y-65718907D01*
X87778343Y-65718917D01*
X87834912Y-65855488D01*
X87834919Y-65855501D01*
X87917048Y-65978415D01*
X87917051Y-65978419D01*
X88021580Y-66082948D01*
X88021584Y-66082951D01*
X88144498Y-66165080D01*
X88144511Y-66165087D01*
X88281082Y-66221656D01*
X88281087Y-66221658D01*
X88281091Y-66221658D01*
X88281092Y-66221659D01*
X88426079Y-66250500D01*
X88426082Y-66250500D01*
X88573920Y-66250500D01*
X88674503Y-66230492D01*
X88718913Y-66221658D01*
X88855495Y-66165084D01*
X88978416Y-66082951D01*
X88978417Y-66082949D01*
X88981609Y-66080817D01*
X89048286Y-66059939D01*
X89115666Y-66078423D01*
X89162357Y-66130402D01*
X89174500Y-66183919D01*
X89174500Y-73006528D01*
X89174499Y-73006546D01*
X89174499Y-73172252D01*
X89174498Y-73172252D01*
X89215423Y-73324983D01*
X89244358Y-73375098D01*
X89244359Y-73375102D01*
X89244360Y-73375102D01*
X89294479Y-73461912D01*
X89294481Y-73461915D01*
X89413349Y-73580783D01*
X89413355Y-73580788D01*
X96564016Y-80731449D01*
X96792073Y-80959507D01*
X96792079Y-80959512D01*
X96824417Y-80991850D01*
X97472526Y-81639960D01*
X97472532Y-81639965D01*
X98138181Y-82305614D01*
X98152884Y-82332541D01*
X98169477Y-82358360D01*
X98170368Y-82364560D01*
X98171666Y-82366937D01*
X98174500Y-82393295D01*
X98174500Y-82625500D01*
X98154815Y-82692539D01*
X98102011Y-82738294D01*
X98050500Y-82749500D01*
X97926080Y-82749500D01*
X97781092Y-82778340D01*
X97781082Y-82778343D01*
X97752794Y-82790061D01*
X97705342Y-82799500D01*
X83541004Y-82799500D01*
X83405677Y-82826418D01*
X83405667Y-82826421D01*
X83278192Y-82879222D01*
X83163454Y-82955887D01*
X79479849Y-86639492D01*
X79418526Y-86672977D01*
X79372771Y-86674284D01*
X79216287Y-86649500D01*
X79003713Y-86649500D01*
X78847227Y-86674284D01*
X78777934Y-86665329D01*
X78740149Y-86639492D01*
X75236819Y-83136162D01*
X75203334Y-83074839D01*
X75200500Y-83048481D01*
X75200500Y-70851006D01*
X75200499Y-70851005D01*
X75178873Y-70742280D01*
X75173580Y-70715671D01*
X75137077Y-70627546D01*
X75120775Y-70588189D01*
X75120774Y-70588187D01*
X75120773Y-70588185D01*
X75044115Y-70473459D01*
X75001998Y-70431342D01*
X74946542Y-70375886D01*
X74386818Y-69816162D01*
X74353333Y-69754839D01*
X74350499Y-69728481D01*
X74350499Y-68522129D01*
X74350498Y-68522123D01*
X74350497Y-68522116D01*
X74344091Y-68462517D01*
X74293796Y-68327669D01*
X74293795Y-68327668D01*
X74293793Y-68327664D01*
X74207547Y-68212455D01*
X74207544Y-68212452D01*
X74092335Y-68126206D01*
X74092328Y-68126202D01*
X73957482Y-68075908D01*
X73957483Y-68075908D01*
X73897883Y-68069501D01*
X73897881Y-68069500D01*
X73897873Y-68069500D01*
X73897864Y-68069500D01*
X72102129Y-68069500D01*
X72102123Y-68069501D01*
X72042516Y-68075908D01*
X71907671Y-68126202D01*
X71907664Y-68126206D01*
X71792455Y-68212452D01*
X71792452Y-68212455D01*
X71706206Y-68327664D01*
X71706202Y-68327671D01*
X71655908Y-68462517D01*
X71649501Y-68522116D01*
X71649501Y-68522123D01*
X71649500Y-68522135D01*
X71649500Y-70317870D01*
X71649501Y-70317876D01*
X71655908Y-70377483D01*
X71706202Y-70512328D01*
X71706206Y-70512335D01*
X71792452Y-70627544D01*
X71792454Y-70627546D01*
X71907664Y-70713793D01*
X71907671Y-70713797D01*
X71952618Y-70730561D01*
X72042517Y-70764091D01*
X72102127Y-70770500D01*
X72112685Y-70770499D01*
X72179723Y-70790179D01*
X72200372Y-70806818D01*
X72870591Y-71477037D01*
X72807007Y-71494075D01*
X72692993Y-71559901D01*
X72599901Y-71652993D01*
X72534075Y-71767007D01*
X72517037Y-71830591D01*
X71884728Y-71198282D01*
X71884727Y-71198282D01*
X71845380Y-71252439D01*
X71748904Y-71441782D01*
X71683242Y-71643869D01*
X71683242Y-71643872D01*
X71650000Y-71853753D01*
X71650000Y-72066246D01*
X71683242Y-72276127D01*
X71683242Y-72276130D01*
X71748904Y-72478217D01*
X71845375Y-72667550D01*
X71884728Y-72721716D01*
X72517037Y-72089408D01*
X72534075Y-72152993D01*
X72599901Y-72267007D01*
X72692993Y-72360099D01*
X72807007Y-72425925D01*
X72870589Y-72442962D01*
X72238282Y-73075269D01*
X72238282Y-73075270D01*
X72292452Y-73114626D01*
X72292451Y-73114626D01*
X72301495Y-73119234D01*
X72352292Y-73167208D01*
X72369087Y-73235029D01*
X72346550Y-73301164D01*
X72301499Y-73340202D01*
X72292182Y-73344949D01*
X72120213Y-73469890D01*
X71969890Y-73620213D01*
X71844951Y-73792179D01*
X71748444Y-73981585D01*
X71682753Y-74183760D01*
X71661771Y-74316239D01*
X71649500Y-74393713D01*
X71649500Y-74606287D01*
X71682754Y-74816243D01*
X71703402Y-74879792D01*
X71748444Y-75018414D01*
X71844951Y-75207820D01*
X71969890Y-75379786D01*
X72120213Y-75530109D01*
X72292182Y-75655050D01*
X72300946Y-75659516D01*
X72351742Y-75707491D01*
X72368536Y-75775312D01*
X72345998Y-75841447D01*
X72300946Y-75880484D01*
X72292182Y-75884949D01*
X72120213Y-76009890D01*
X71969890Y-76160213D01*
X71844951Y-76332179D01*
X71748444Y-76521585D01*
X71682753Y-76723760D01*
X71657992Y-76880095D01*
X71649500Y-76933713D01*
X71649500Y-77146287D01*
X71682754Y-77356243D01*
X71739121Y-77529723D01*
X71748444Y-77558414D01*
X71844951Y-77747820D01*
X71969890Y-77919786D01*
X72120213Y-78070109D01*
X72292179Y-78195048D01*
X72292181Y-78195049D01*
X72292184Y-78195051D01*
X72481588Y-78291557D01*
X72683757Y-78357246D01*
X72893713Y-78390500D01*
X72893714Y-78390500D01*
X73106286Y-78390500D01*
X73106287Y-78390500D01*
X73316243Y-78357246D01*
X73518412Y-78291557D01*
X73619206Y-78240199D01*
X73687874Y-78227304D01*
X73752614Y-78253580D01*
X73792872Y-78310686D01*
X73799500Y-78350685D01*
X73799500Y-83321006D01*
X73799500Y-83458994D01*
X73799500Y-83458996D01*
X73799499Y-83458996D01*
X73826418Y-83594322D01*
X73826421Y-83594332D01*
X73879222Y-83721807D01*
X73955887Y-83836545D01*
X73955888Y-83836546D01*
X77130300Y-87010957D01*
X77163785Y-87072280D01*
X77158801Y-87141972D01*
X77116929Y-87197905D01*
X77066812Y-87220255D01*
X77016507Y-87230261D01*
X77016498Y-87230264D01*
X76870827Y-87290602D01*
X76870814Y-87290609D01*
X76739711Y-87378210D01*
X76739707Y-87378213D01*
X76628213Y-87489707D01*
X76628210Y-87489711D01*
X76540609Y-87620814D01*
X76540602Y-87620827D01*
X76480264Y-87766498D01*
X76480261Y-87766510D01*
X76449500Y-87921153D01*
X76449500Y-88078846D01*
X76480261Y-88233489D01*
X76480264Y-88233501D01*
X76540602Y-88379172D01*
X76540609Y-88379185D01*
X76628210Y-88510288D01*
X76628213Y-88510292D01*
X76739707Y-88621786D01*
X76739711Y-88621789D01*
X76870814Y-88709390D01*
X76870827Y-88709397D01*
X77015185Y-88769191D01*
X77055414Y-88796071D01*
X78352453Y-90093111D01*
X78352454Y-90093112D01*
X78467192Y-90169777D01*
X78594667Y-90222578D01*
X78594672Y-90222580D01*
X78594676Y-90222580D01*
X78594677Y-90222581D01*
X78730003Y-90249500D01*
X78730006Y-90249500D01*
X78730007Y-90249500D01*
X78948845Y-90249500D01*
X79015884Y-90269185D01*
X79036526Y-90285819D01*
X79763181Y-91012474D01*
X79796666Y-91073797D01*
X79799500Y-91100155D01*
X79799500Y-91681006D01*
X79799500Y-91818994D01*
X79799500Y-91818996D01*
X79799499Y-91818996D01*
X79826418Y-91954322D01*
X79826421Y-91954332D01*
X79879222Y-92081807D01*
X79955887Y-92196545D01*
X79955888Y-92196546D01*
X81203927Y-93444584D01*
X81230807Y-93484812D01*
X81290604Y-93629176D01*
X81290609Y-93629185D01*
X81378210Y-93760288D01*
X81378213Y-93760292D01*
X81489707Y-93871786D01*
X81489711Y-93871789D01*
X81620814Y-93959390D01*
X81620827Y-93959397D01*
X81766498Y-94019735D01*
X81766503Y-94019737D01*
X81891075Y-94044516D01*
X81921153Y-94050499D01*
X81921156Y-94050500D01*
X81921158Y-94050500D01*
X82078843Y-94050500D01*
X82094564Y-94047372D01*
X82151309Y-94036085D01*
X82220899Y-94042312D01*
X82276077Y-94085174D01*
X82299322Y-94151063D01*
X82299500Y-94157702D01*
X82299500Y-97606006D01*
X82299500Y-97743994D01*
X82299500Y-97743996D01*
X82299499Y-97743996D01*
X82326418Y-97879322D01*
X82326421Y-97879332D01*
X82379222Y-98006807D01*
X82455887Y-98121545D01*
X82455888Y-98121546D01*
X83722162Y-99387819D01*
X83755647Y-99449142D01*
X83750663Y-99518834D01*
X83708791Y-99574767D01*
X83643327Y-99599184D01*
X83634481Y-99599500D01*
X82455155Y-99599500D01*
X82388116Y-99579815D01*
X82367474Y-99563181D01*
X81736819Y-98932526D01*
X81703334Y-98871203D01*
X81700500Y-98844845D01*
X81700500Y-96431004D01*
X81691533Y-96385930D01*
X81678410Y-96319955D01*
X81673580Y-96295671D01*
X81629703Y-96189744D01*
X81620775Y-96168189D01*
X81615695Y-96160586D01*
X81544115Y-96053459D01*
X81515282Y-96024626D01*
X81446542Y-95955886D01*
X81076816Y-95586160D01*
X79946546Y-94455888D01*
X79946545Y-94455887D01*
X79831807Y-94379222D01*
X79704332Y-94326421D01*
X79704322Y-94326418D01*
X79568996Y-94299500D01*
X79568994Y-94299500D01*
X79568993Y-94299500D01*
X79132205Y-94299500D01*
X79102768Y-94290856D01*
X79072779Y-94284333D01*
X79067761Y-94280577D01*
X79065166Y-94279815D01*
X79044524Y-94263182D01*
X79003029Y-94221687D01*
X78956870Y-94175528D01*
X78923387Y-94114208D01*
X78928371Y-94044516D01*
X78970242Y-93988582D01*
X78979457Y-93982310D01*
X79016605Y-93959397D01*
X79043656Y-93942712D01*
X79167712Y-93818656D01*
X79259814Y-93669334D01*
X79314999Y-93502797D01*
X79325500Y-93400009D01*
X79325499Y-92599992D01*
X79314999Y-92497203D01*
X79259814Y-92330666D01*
X79167712Y-92181344D01*
X79043656Y-92057288D01*
X78894334Y-91965186D01*
X78727797Y-91910001D01*
X78727795Y-91910000D01*
X78625010Y-91899500D01*
X77274998Y-91899500D01*
X77274981Y-91899501D01*
X77172203Y-91910000D01*
X77172200Y-91910001D01*
X77005668Y-91965185D01*
X77005663Y-91965187D01*
X76856342Y-92057289D01*
X76732289Y-92181342D01*
X76640187Y-92330663D01*
X76640185Y-92330668D01*
X76629932Y-92361611D01*
X76585001Y-92497203D01*
X76585001Y-92497204D01*
X76585000Y-92497204D01*
X76574500Y-92599983D01*
X76574500Y-93400001D01*
X76574501Y-93400019D01*
X76585000Y-93502796D01*
X76585001Y-93502799D01*
X76610201Y-93578846D01*
X76640186Y-93669334D01*
X76732288Y-93818656D01*
X76856344Y-93942712D01*
X76916388Y-93979747D01*
X76920543Y-93982310D01*
X76967268Y-94034258D01*
X76978489Y-94103221D01*
X76950646Y-94167303D01*
X76943128Y-94175530D01*
X76835585Y-94283073D01*
X76733768Y-94423211D01*
X76655128Y-94577552D01*
X76601597Y-94742302D01*
X76596597Y-94773871D01*
X76574500Y-94913389D01*
X76574500Y-95086611D01*
X76601598Y-95257701D01*
X76655127Y-95422445D01*
X76733768Y-95576788D01*
X76835586Y-95716928D01*
X76958072Y-95839414D01*
X76975257Y-95851899D01*
X77041023Y-95899683D01*
X77083689Y-95955013D01*
X77089667Y-96024626D01*
X77057061Y-96086421D01*
X77041023Y-96100317D01*
X76958078Y-96160581D01*
X76958069Y-96160588D01*
X76835588Y-96283069D01*
X76835588Y-96283070D01*
X76835586Y-96283072D01*
X76808789Y-96319955D01*
X76733768Y-96423211D01*
X76655128Y-96577552D01*
X76601597Y-96742302D01*
X76574500Y-96913389D01*
X76574500Y-97086610D01*
X76595454Y-97218913D01*
X76601598Y-97257701D01*
X76655127Y-97422445D01*
X76733768Y-97576788D01*
X76835586Y-97716928D01*
X76958072Y-97839414D01*
X77098212Y-97941232D01*
X77252555Y-98019873D01*
X77417299Y-98073402D01*
X77531689Y-98091519D01*
X77594819Y-98121446D01*
X77631751Y-98180758D01*
X77630753Y-98250620D01*
X77592144Y-98308853D01*
X77581179Y-98317093D01*
X77489707Y-98378213D01*
X77378213Y-98489707D01*
X77378210Y-98489711D01*
X77290609Y-98620814D01*
X77290602Y-98620827D01*
X77230264Y-98766498D01*
X77230261Y-98766510D01*
X77199500Y-98921153D01*
X77199500Y-99078846D01*
X77230261Y-99233489D01*
X77230264Y-99233501D01*
X77290061Y-99377864D01*
X77299500Y-99425316D01*
X77299500Y-99939642D01*
X77299500Y-100077630D01*
X77299500Y-100077632D01*
X77299499Y-100077632D01*
X77326418Y-100212958D01*
X77326421Y-100212968D01*
X77379222Y-100340443D01*
X77455887Y-100455181D01*
X80294818Y-103294112D01*
X80409554Y-103370776D01*
X80508154Y-103411617D01*
X80537035Y-103423580D01*
X80537036Y-103423580D01*
X80537041Y-103423582D01*
X80563909Y-103428925D01*
X80563915Y-103428926D01*
X80563955Y-103428934D01*
X80654301Y-103446905D01*
X80672370Y-103450500D01*
X80672371Y-103450500D01*
X85669684Y-103450500D01*
X85717136Y-103459939D01*
X85861498Y-103519735D01*
X85861503Y-103519737D01*
X86016153Y-103550499D01*
X86016156Y-103550500D01*
X86016158Y-103550500D01*
X86173844Y-103550500D01*
X86173845Y-103550499D01*
X86328497Y-103519737D01*
X86474179Y-103459394D01*
X86605289Y-103371789D01*
X86716789Y-103260289D01*
X86804394Y-103129179D01*
X86864737Y-102983497D01*
X86895500Y-102828842D01*
X86895500Y-102671158D01*
X86895500Y-102671155D01*
X86895499Y-102671153D01*
X86886235Y-102624580D01*
X86864737Y-102516503D01*
X86864735Y-102516498D01*
X86804397Y-102370827D01*
X86804390Y-102370814D01*
X86716789Y-102239711D01*
X86716786Y-102239707D01*
X86605292Y-102128213D01*
X86605288Y-102128210D01*
X86474185Y-102040609D01*
X86474172Y-102040602D01*
X86328501Y-101980264D01*
X86328489Y-101980261D01*
X86173845Y-101949500D01*
X86173842Y-101949500D01*
X86016158Y-101949500D01*
X86016155Y-101949500D01*
X85861510Y-101980261D01*
X85861498Y-101980264D01*
X85717136Y-102040061D01*
X85669684Y-102049500D01*
X81082883Y-102049500D01*
X81015844Y-102029815D01*
X80995202Y-102013181D01*
X78736819Y-99754798D01*
X78722115Y-99727870D01*
X78705523Y-99702052D01*
X78704631Y-99695851D01*
X78703334Y-99693475D01*
X78700500Y-99667117D01*
X78700500Y-99425316D01*
X78709939Y-99377864D01*
X78769735Y-99233501D01*
X78769737Y-99233497D01*
X78800500Y-99078842D01*
X78800500Y-98921158D01*
X78800500Y-98921155D01*
X78800499Y-98921153D01*
X78792159Y-98879225D01*
X78769737Y-98766503D01*
X78768361Y-98763181D01*
X78709397Y-98620827D01*
X78709390Y-98620814D01*
X78621789Y-98489711D01*
X78621786Y-98489707D01*
X78510292Y-98378213D01*
X78510288Y-98378210D01*
X78399660Y-98304290D01*
X78354855Y-98250677D01*
X78346148Y-98181352D01*
X78376303Y-98118325D01*
X78435746Y-98081606D01*
X78449134Y-98078718D01*
X78482701Y-98073402D01*
X78647445Y-98019873D01*
X78801788Y-97941232D01*
X78941928Y-97839414D01*
X79064414Y-97716928D01*
X79166232Y-97576788D01*
X79244873Y-97422445D01*
X79298402Y-97257701D01*
X79325500Y-97086611D01*
X79325500Y-96913389D01*
X79298402Y-96742299D01*
X79244873Y-96577555D01*
X79166232Y-96423212D01*
X79064414Y-96283072D01*
X78941928Y-96160586D01*
X78858975Y-96100317D01*
X78816311Y-96044988D01*
X78810332Y-95975374D01*
X78842938Y-95913579D01*
X78858976Y-95899682D01*
X78941928Y-95839414D01*
X79044524Y-95736818D01*
X79071457Y-95722111D01*
X79097270Y-95705523D01*
X79103470Y-95704631D01*
X79105847Y-95703334D01*
X79132205Y-95700500D01*
X79158481Y-95700500D01*
X79225520Y-95720185D01*
X79246162Y-95736819D01*
X80263181Y-96753837D01*
X80296666Y-96815160D01*
X80299500Y-96841518D01*
X80299500Y-99117370D01*
X80299500Y-99255358D01*
X80299500Y-99255360D01*
X80299499Y-99255360D01*
X80326418Y-99390686D01*
X80326421Y-99390696D01*
X80379222Y-99518171D01*
X80455887Y-99632909D01*
X81667090Y-100844112D01*
X81781828Y-100920777D01*
X81909303Y-100973578D01*
X81909308Y-100973580D01*
X81909312Y-100973580D01*
X81909313Y-100973581D01*
X82044640Y-101000500D01*
X82044643Y-101000500D01*
X93217117Y-101000500D01*
X93284156Y-101020185D01*
X93304798Y-101036819D01*
X94763089Y-102495111D01*
X94763090Y-102495112D01*
X94877828Y-102571777D01*
X95005303Y-102624578D01*
X95005308Y-102624580D01*
X95005312Y-102624580D01*
X95005313Y-102624581D01*
X95140639Y-102651500D01*
X95140642Y-102651500D01*
X95859360Y-102651500D01*
X95950404Y-102633389D01*
X95994692Y-102624580D01*
X96058433Y-102598177D01*
X96122171Y-102571777D01*
X96122172Y-102571776D01*
X96122175Y-102571775D01*
X96236907Y-102495114D01*
X96236910Y-102495111D01*
X96245203Y-102486819D01*
X96306526Y-102453334D01*
X96332884Y-102450500D01*
X98318996Y-102450500D01*
X98410040Y-102432389D01*
X98454328Y-102423580D01*
X98518069Y-102397177D01*
X98581807Y-102370777D01*
X98581808Y-102370776D01*
X98581811Y-102370775D01*
X98696543Y-102294114D01*
X103286973Y-97703681D01*
X103327199Y-97676803D01*
X103355495Y-97665084D01*
X103478416Y-97582951D01*
X103582951Y-97478416D01*
X103665084Y-97355495D01*
X103674203Y-97333481D01*
X103677902Y-97324547D01*
X103721658Y-97218913D01*
X103747975Y-97086611D01*
X103750500Y-97073920D01*
X103750500Y-96926079D01*
X103721659Y-96781092D01*
X103721658Y-96781091D01*
X103721658Y-96781087D01*
X103710371Y-96753837D01*
X103665087Y-96644511D01*
X103665080Y-96644498D01*
X103582951Y-96521584D01*
X103582948Y-96521580D01*
X103478419Y-96417051D01*
X103478415Y-96417048D01*
X103355501Y-96334919D01*
X103355488Y-96334912D01*
X103218917Y-96278343D01*
X103218907Y-96278340D01*
X103073920Y-96249500D01*
X103073918Y-96249500D01*
X102926082Y-96249500D01*
X102926080Y-96249500D01*
X102781092Y-96278340D01*
X102781082Y-96278343D01*
X102644511Y-96334912D01*
X102644498Y-96334919D01*
X102521584Y-96417048D01*
X102521580Y-96417051D01*
X102417051Y-96521580D01*
X102417048Y-96521584D01*
X102334919Y-96644498D01*
X102334914Y-96644509D01*
X102323193Y-96672803D01*
X102296315Y-96713027D01*
X97996162Y-101013181D01*
X97934839Y-101046666D01*
X97908481Y-101049500D01*
X95922368Y-101049500D01*
X95787041Y-101076418D01*
X95787031Y-101076421D01*
X95659556Y-101129223D01*
X95575697Y-101185255D01*
X95509019Y-101206132D01*
X95441639Y-101187647D01*
X95419126Y-101169833D01*
X94005182Y-99755888D01*
X94005181Y-99755887D01*
X93890443Y-99679222D01*
X93762968Y-99626421D01*
X93762958Y-99626418D01*
X93627632Y-99599500D01*
X93627630Y-99599500D01*
X93627629Y-99599500D01*
X91231922Y-99599500D01*
X91164883Y-99579815D01*
X91119128Y-99527011D01*
X91110305Y-99499692D01*
X91096659Y-99431092D01*
X91096658Y-99431091D01*
X91096658Y-99431087D01*
X91079926Y-99390692D01*
X91040087Y-99294511D01*
X91040080Y-99294498D01*
X90957951Y-99171584D01*
X90954086Y-99166874D01*
X90954238Y-99166748D01*
X90948000Y-99159147D01*
X90947978Y-99159166D01*
X90944111Y-99154454D01*
X90846545Y-99056888D01*
X90846541Y-99056885D01*
X90731817Y-98980228D01*
X90731804Y-98980221D01*
X90604332Y-98927421D01*
X90604322Y-98927418D01*
X90468995Y-98900500D01*
X90468993Y-98900500D01*
X90453945Y-98900500D01*
X90448918Y-98899500D01*
X90301082Y-98899500D01*
X90296055Y-98900500D01*
X86388648Y-98900500D01*
X86250660Y-98900500D01*
X86250658Y-98900500D01*
X86115331Y-98927418D01*
X86115321Y-98927421D01*
X86095047Y-98935819D01*
X86025577Y-98943286D01*
X85978707Y-98924360D01*
X85942997Y-98900500D01*
X85911157Y-98879225D01*
X85911154Y-98879223D01*
X85911153Y-98879223D01*
X85783678Y-98826421D01*
X85783668Y-98826418D01*
X85648342Y-98799500D01*
X85648340Y-98799500D01*
X85648339Y-98799500D01*
X85166519Y-98799500D01*
X85099480Y-98779815D01*
X85078838Y-98763181D01*
X83736819Y-97421162D01*
X83703334Y-97359839D01*
X83700500Y-97333481D01*
X83700500Y-93182204D01*
X83720185Y-93115165D01*
X83736819Y-93094523D01*
X83737999Y-93093343D01*
X83839414Y-92991928D01*
X83899682Y-92908975D01*
X83955012Y-92866311D01*
X84024626Y-92860332D01*
X84086421Y-92892938D01*
X84100315Y-92908973D01*
X84160586Y-92991928D01*
X84283072Y-93114414D01*
X84423212Y-93216232D01*
X84577555Y-93294873D01*
X84742299Y-93348402D01*
X84913389Y-93375500D01*
X84913390Y-93375500D01*
X85075500Y-93375500D01*
X85142539Y-93395185D01*
X85188294Y-93447989D01*
X85199500Y-93499500D01*
X85199500Y-93578846D01*
X85230261Y-93733489D01*
X85230264Y-93733501D01*
X85290602Y-93879172D01*
X85290609Y-93879185D01*
X85378210Y-94010288D01*
X85378213Y-94010292D01*
X85489707Y-94121786D01*
X85489711Y-94121789D01*
X85620814Y-94209390D01*
X85620827Y-94209397D01*
X85766498Y-94269735D01*
X85766503Y-94269737D01*
X85872675Y-94290856D01*
X85921153Y-94300499D01*
X85921156Y-94300500D01*
X85921158Y-94300500D01*
X86078844Y-94300500D01*
X86201308Y-94276140D01*
X86270900Y-94282367D01*
X86326077Y-94325230D01*
X86349322Y-94391120D01*
X86349500Y-94397757D01*
X86349500Y-95586160D01*
X86336385Y-95638520D01*
X86337247Y-95638878D01*
X86278342Y-95781086D01*
X86278340Y-95781092D01*
X86249500Y-95926079D01*
X86249500Y-95926082D01*
X86249500Y-96073918D01*
X86249500Y-96073920D01*
X86249499Y-96073920D01*
X86278340Y-96218907D01*
X86278343Y-96218917D01*
X86334912Y-96355488D01*
X86334919Y-96355501D01*
X86417048Y-96478415D01*
X86417051Y-96478419D01*
X86521580Y-96582948D01*
X86521584Y-96582951D01*
X86644498Y-96665080D01*
X86644511Y-96665087D01*
X86718143Y-96695586D01*
X86781087Y-96721658D01*
X86781091Y-96721658D01*
X86781092Y-96721659D01*
X86926079Y-96750500D01*
X86926082Y-96750500D01*
X87073920Y-96750500D01*
X87171462Y-96731096D01*
X87218913Y-96721658D01*
X87355495Y-96665084D01*
X87478416Y-96582951D01*
X87483790Y-96577577D01*
X99775975Y-96577577D01*
X99881236Y-96621178D01*
X99881240Y-96621179D01*
X100026126Y-96649999D01*
X100026129Y-96650000D01*
X100173871Y-96650000D01*
X100173873Y-96649999D01*
X100318760Y-96621179D01*
X100318775Y-96621175D01*
X100424024Y-96577578D01*
X100424024Y-96577577D01*
X101175975Y-96577577D01*
X101281236Y-96621178D01*
X101281240Y-96621179D01*
X101426126Y-96649999D01*
X101426129Y-96650000D01*
X101573871Y-96650000D01*
X101573873Y-96649999D01*
X101718760Y-96621179D01*
X101718775Y-96621175D01*
X101824024Y-96577578D01*
X101824024Y-96577577D01*
X101500001Y-96253554D01*
X101500000Y-96253554D01*
X101175975Y-96577577D01*
X100424024Y-96577577D01*
X100100001Y-96253554D01*
X100100000Y-96253554D01*
X99775975Y-96577577D01*
X87483790Y-96577577D01*
X87582951Y-96478416D01*
X87665084Y-96355495D01*
X87721658Y-96218913D01*
X87741580Y-96118760D01*
X87750500Y-96073920D01*
X87750500Y-95926079D01*
X87735895Y-95852660D01*
X87730617Y-95826126D01*
X99350000Y-95826126D01*
X99350000Y-95973873D01*
X99378820Y-96118759D01*
X99378822Y-96118767D01*
X99422421Y-96224024D01*
X99746446Y-95900000D01*
X99746446Y-95899999D01*
X99726556Y-95880109D01*
X100000000Y-95880109D01*
X100000000Y-95919891D01*
X100015224Y-95956645D01*
X100043355Y-95984776D01*
X100080109Y-96000000D01*
X100119891Y-96000000D01*
X100156645Y-95984776D01*
X100184776Y-95956645D01*
X100200000Y-95919891D01*
X100200000Y-95899999D01*
X100453554Y-95899999D01*
X100453554Y-95900001D01*
X100777929Y-96224376D01*
X100822069Y-96224376D01*
X101146446Y-95900000D01*
X101126555Y-95880109D01*
X101400000Y-95880109D01*
X101400000Y-95919891D01*
X101415224Y-95956645D01*
X101443355Y-95984776D01*
X101480109Y-96000000D01*
X101519891Y-96000000D01*
X101556645Y-95984776D01*
X101584776Y-95956645D01*
X101600000Y-95919891D01*
X101600000Y-95899999D01*
X101853554Y-95899999D01*
X101853554Y-95900001D01*
X102177577Y-96224024D01*
X102177578Y-96224024D01*
X102221175Y-96118775D01*
X102221179Y-96118760D01*
X102249999Y-95973873D01*
X102250000Y-95973871D01*
X102250000Y-95826128D01*
X102249999Y-95826126D01*
X102221179Y-95681240D01*
X102221178Y-95681236D01*
X102177577Y-95575975D01*
X101853554Y-95899999D01*
X101600000Y-95899999D01*
X101600000Y-95880109D01*
X101584776Y-95843355D01*
X101556645Y-95815224D01*
X101519891Y-95800000D01*
X101480109Y-95800000D01*
X101443355Y-95815224D01*
X101415224Y-95843355D01*
X101400000Y-95880109D01*
X101126555Y-95880109D01*
X100822068Y-95575622D01*
X100777930Y-95575622D01*
X100453554Y-95899999D01*
X100200000Y-95899999D01*
X100200000Y-95880109D01*
X100184776Y-95843355D01*
X100156645Y-95815224D01*
X100119891Y-95800000D01*
X100080109Y-95800000D01*
X100043355Y-95815224D01*
X100015224Y-95843355D01*
X100000000Y-95880109D01*
X99726556Y-95880109D01*
X99422421Y-95575974D01*
X99422420Y-95575974D01*
X99378823Y-95681228D01*
X99378820Y-95681240D01*
X99350000Y-95826126D01*
X87730617Y-95826126D01*
X87721658Y-95781087D01*
X87665084Y-95644505D01*
X87661792Y-95639578D01*
X87657380Y-95626891D01*
X87656569Y-95610392D01*
X87650500Y-95586160D01*
X87650500Y-95300000D01*
X99853554Y-95300000D01*
X100100000Y-95546446D01*
X100346446Y-95300000D01*
X101253554Y-95300000D01*
X101500000Y-95546446D01*
X101746446Y-95300000D01*
X101500000Y-95053554D01*
X101253554Y-95300000D01*
X100346446Y-95300000D01*
X100100000Y-95053554D01*
X99853554Y-95300000D01*
X87650500Y-95300000D01*
X87650500Y-94626126D01*
X99350000Y-94626126D01*
X99350000Y-94773873D01*
X99378820Y-94918759D01*
X99378822Y-94918767D01*
X99422421Y-95024024D01*
X99746446Y-94700000D01*
X99746446Y-94699999D01*
X99726556Y-94680109D01*
X100000000Y-94680109D01*
X100000000Y-94719891D01*
X100015224Y-94756645D01*
X100043355Y-94784776D01*
X100080109Y-94800000D01*
X100119891Y-94800000D01*
X100156645Y-94784776D01*
X100184776Y-94756645D01*
X100200000Y-94719891D01*
X100200000Y-94699999D01*
X100453554Y-94699999D01*
X100453554Y-94700001D01*
X100777929Y-95024376D01*
X100822069Y-95024376D01*
X101146446Y-94700000D01*
X101126555Y-94680109D01*
X101400000Y-94680109D01*
X101400000Y-94719891D01*
X101415224Y-94756645D01*
X101443355Y-94784776D01*
X101480109Y-94800000D01*
X101519891Y-94800000D01*
X101556645Y-94784776D01*
X101584776Y-94756645D01*
X101600000Y-94719891D01*
X101600000Y-94699999D01*
X101853554Y-94699999D01*
X101853554Y-94700001D01*
X102177577Y-95024024D01*
X102177578Y-95024024D01*
X102221175Y-94918775D01*
X102221179Y-94918760D01*
X102249999Y-94773873D01*
X102250000Y-94773871D01*
X102250000Y-94626128D01*
X102249999Y-94626126D01*
X102221179Y-94481240D01*
X102221178Y-94481236D01*
X102177577Y-94375975D01*
X101853554Y-94699999D01*
X101600000Y-94699999D01*
X101600000Y-94680109D01*
X101584776Y-94643355D01*
X101556645Y-94615224D01*
X101519891Y-94600000D01*
X101480109Y-94600000D01*
X101443355Y-94615224D01*
X101415224Y-94643355D01*
X101400000Y-94680109D01*
X101126555Y-94680109D01*
X100822068Y-94375622D01*
X100777930Y-94375622D01*
X100453554Y-94699999D01*
X100200000Y-94699999D01*
X100200000Y-94680109D01*
X100184776Y-94643355D01*
X100156645Y-94615224D01*
X100119891Y-94600000D01*
X100080109Y-94600000D01*
X100043355Y-94615224D01*
X100015224Y-94643355D01*
X100000000Y-94680109D01*
X99726556Y-94680109D01*
X99422421Y-94375974D01*
X99422420Y-94375974D01*
X99378823Y-94481228D01*
X99378820Y-94481240D01*
X99350000Y-94626126D01*
X87650500Y-94626126D01*
X87650500Y-94397757D01*
X87670185Y-94330718D01*
X87722989Y-94284963D01*
X87792147Y-94275019D01*
X87798692Y-94276140D01*
X87921155Y-94300500D01*
X87921158Y-94300500D01*
X88078844Y-94300500D01*
X88078845Y-94300499D01*
X88233497Y-94269737D01*
X88379179Y-94209394D01*
X88510289Y-94121789D01*
X88532078Y-94100000D01*
X99853554Y-94100000D01*
X100100000Y-94346446D01*
X100346446Y-94100000D01*
X101253554Y-94100000D01*
X101500000Y-94346446D01*
X101746446Y-94100000D01*
X101500000Y-93853554D01*
X101253554Y-94100000D01*
X100346446Y-94100000D01*
X100100000Y-93853554D01*
X99853554Y-94100000D01*
X88532078Y-94100000D01*
X88621789Y-94010289D01*
X88709394Y-93879179D01*
X88769737Y-93733497D01*
X88800500Y-93578842D01*
X88800500Y-93499500D01*
X88820185Y-93432461D01*
X88827496Y-93426126D01*
X99350000Y-93426126D01*
X99350000Y-93573873D01*
X99378820Y-93718759D01*
X99378822Y-93718767D01*
X99422421Y-93824024D01*
X99746446Y-93500000D01*
X99746446Y-93499999D01*
X99726556Y-93480109D01*
X100000000Y-93480109D01*
X100000000Y-93519891D01*
X100015224Y-93556645D01*
X100043355Y-93584776D01*
X100080109Y-93600000D01*
X100119891Y-93600000D01*
X100156645Y-93584776D01*
X100184776Y-93556645D01*
X100200000Y-93519891D01*
X100200000Y-93499999D01*
X100453554Y-93499999D01*
X100453554Y-93500001D01*
X100777929Y-93824376D01*
X100822069Y-93824376D01*
X101146446Y-93500000D01*
X101126555Y-93480109D01*
X101400000Y-93480109D01*
X101400000Y-93519891D01*
X101415224Y-93556645D01*
X101443355Y-93584776D01*
X101480109Y-93600000D01*
X101519891Y-93600000D01*
X101556645Y-93584776D01*
X101584776Y-93556645D01*
X101600000Y-93519891D01*
X101600000Y-93499999D01*
X101853554Y-93499999D01*
X101853554Y-93500001D01*
X102177577Y-93824024D01*
X102177578Y-93824024D01*
X102221175Y-93718775D01*
X102221179Y-93718760D01*
X102249999Y-93573873D01*
X102250000Y-93573871D01*
X102250000Y-93426128D01*
X102249999Y-93426126D01*
X102221179Y-93281240D01*
X102221178Y-93281236D01*
X102177577Y-93175975D01*
X101853554Y-93499999D01*
X101600000Y-93499999D01*
X101600000Y-93480109D01*
X101584776Y-93443355D01*
X101556645Y-93415224D01*
X101519891Y-93400000D01*
X101480109Y-93400000D01*
X101443355Y-93415224D01*
X101415224Y-93443355D01*
X101400000Y-93480109D01*
X101126555Y-93480109D01*
X100822068Y-93175622D01*
X100777930Y-93175622D01*
X100453554Y-93499999D01*
X100200000Y-93499999D01*
X100200000Y-93480109D01*
X100184776Y-93443355D01*
X100156645Y-93415224D01*
X100119891Y-93400000D01*
X100080109Y-93400000D01*
X100043355Y-93415224D01*
X100015224Y-93443355D01*
X100000000Y-93480109D01*
X99726556Y-93480109D01*
X99422421Y-93175974D01*
X99422420Y-93175974D01*
X99378823Y-93281228D01*
X99378820Y-93281240D01*
X99350000Y-93426126D01*
X88827496Y-93426126D01*
X88872989Y-93386706D01*
X88924500Y-93375500D01*
X89086610Y-93375500D01*
X89086611Y-93375500D01*
X89257701Y-93348402D01*
X89422445Y-93294873D01*
X89576788Y-93216232D01*
X89716928Y-93114414D01*
X89839414Y-92991928D01*
X89899682Y-92908975D01*
X89955012Y-92866311D01*
X90024626Y-92860332D01*
X90086421Y-92892938D01*
X90100315Y-92908973D01*
X90160586Y-92991928D01*
X90283072Y-93114414D01*
X90423212Y-93216232D01*
X90577555Y-93294873D01*
X90742299Y-93348402D01*
X90913389Y-93375500D01*
X90913390Y-93375500D01*
X91086610Y-93375500D01*
X91086611Y-93375500D01*
X91257701Y-93348402D01*
X91422445Y-93294873D01*
X91576788Y-93216232D01*
X91716928Y-93114414D01*
X91824836Y-93006505D01*
X91886155Y-92973023D01*
X91955847Y-92978007D01*
X92011781Y-93019878D01*
X92018053Y-93029093D01*
X92057682Y-93093343D01*
X92181654Y-93217315D01*
X92330875Y-93309356D01*
X92330880Y-93309358D01*
X92497302Y-93364505D01*
X92497309Y-93364506D01*
X92600019Y-93374999D01*
X92749999Y-93374999D01*
X92750000Y-93374998D01*
X92750000Y-92280330D01*
X92769745Y-92300075D01*
X92855255Y-92349444D01*
X92950630Y-92375000D01*
X93049370Y-92375000D01*
X93144745Y-92349444D01*
X93230255Y-92300075D01*
X93250000Y-92280330D01*
X93250000Y-93374999D01*
X93399972Y-93374999D01*
X93399986Y-93374998D01*
X93502697Y-93364505D01*
X93669121Y-93309357D01*
X93818345Y-93217315D01*
X93942315Y-93093345D01*
X94034356Y-92944124D01*
X94034358Y-92944119D01*
X94074085Y-92824232D01*
X94074685Y-92822420D01*
X99775974Y-92822420D01*
X99775974Y-92822421D01*
X100100000Y-93146446D01*
X100100001Y-93146446D01*
X100424024Y-92822421D01*
X100424022Y-92822420D01*
X101175974Y-92822420D01*
X101175974Y-92822421D01*
X101500000Y-93146446D01*
X101500001Y-93146446D01*
X101824024Y-92822421D01*
X101718767Y-92778822D01*
X101718759Y-92778820D01*
X101573872Y-92750000D01*
X101426128Y-92750000D01*
X101281240Y-92778820D01*
X101281228Y-92778823D01*
X101175974Y-92822420D01*
X100424022Y-92822420D01*
X100318767Y-92778822D01*
X100318759Y-92778820D01*
X100173872Y-92750000D01*
X100026128Y-92750000D01*
X99881240Y-92778820D01*
X99881228Y-92778823D01*
X99775974Y-92822420D01*
X94074685Y-92822420D01*
X94089505Y-92777697D01*
X94089506Y-92777690D01*
X94099999Y-92674986D01*
X94100000Y-92674973D01*
X94100000Y-92250000D01*
X93280330Y-92250000D01*
X93300075Y-92230255D01*
X93349444Y-92144745D01*
X93375000Y-92049370D01*
X93375000Y-91950630D01*
X93349444Y-91855255D01*
X93300075Y-91769745D01*
X93280330Y-91750000D01*
X94099999Y-91750000D01*
X94099999Y-91325028D01*
X94099998Y-91325013D01*
X94089505Y-91222302D01*
X94034358Y-91055880D01*
X94034353Y-91055869D01*
X94008896Y-91014597D01*
X93990455Y-90947205D01*
X94011377Y-90880541D01*
X94065019Y-90835771D01*
X94114434Y-90825500D01*
X98506529Y-90825500D01*
X98506545Y-90825501D01*
X98514141Y-90825501D01*
X98672252Y-90825501D01*
X98672255Y-90825501D01*
X98824983Y-90784577D01*
X98875102Y-90755639D01*
X98961914Y-90705520D01*
X99073718Y-90593716D01*
X99073718Y-90593714D01*
X99083926Y-90583507D01*
X99083928Y-90583504D01*
X99583506Y-90083926D01*
X99583511Y-90083922D01*
X99593714Y-90073718D01*
X99593716Y-90073718D01*
X99705520Y-89961914D01*
X99767791Y-89854057D01*
X99784577Y-89824983D01*
X99825501Y-89672255D01*
X99825501Y-89514141D01*
X99825501Y-89506546D01*
X99825500Y-89506528D01*
X99825500Y-81827747D01*
X99825500Y-81827745D01*
X99797831Y-81724482D01*
X99784577Y-81675017D01*
X99748585Y-81612678D01*
X99748585Y-81612676D01*
X99705524Y-81538092D01*
X99705521Y-81538088D01*
X99705520Y-81538086D01*
X99593716Y-81426282D01*
X99593715Y-81426281D01*
X99589385Y-81421951D01*
X99589374Y-81421941D01*
X90861819Y-72694386D01*
X90828334Y-72633063D01*
X90825500Y-72606705D01*
X90825500Y-69816228D01*
X100649500Y-69816228D01*
X100649500Y-69983771D01*
X100682182Y-70148074D01*
X100682184Y-70148082D01*
X100746295Y-70302860D01*
X100839373Y-70442162D01*
X100957837Y-70560626D01*
X101050494Y-70622537D01*
X101097137Y-70653703D01*
X101251918Y-70717816D01*
X101374908Y-70742280D01*
X101416228Y-70750499D01*
X101416232Y-70750500D01*
X101416233Y-70750500D01*
X101583768Y-70750500D01*
X101583769Y-70750499D01*
X101748082Y-70717816D01*
X101858891Y-70671916D01*
X101928358Y-70664448D01*
X101990837Y-70695722D01*
X102026490Y-70755811D01*
X102029700Y-70799078D01*
X102024501Y-70849976D01*
X102024500Y-70849996D01*
X102024500Y-72150001D01*
X102024501Y-72150018D01*
X102035000Y-72252796D01*
X102035001Y-72252799D01*
X102090185Y-72419331D01*
X102090187Y-72419336D01*
X102182289Y-72568657D01*
X102306344Y-72692712D01*
X102461120Y-72788178D01*
X102507845Y-72840126D01*
X102519068Y-72909088D01*
X102491224Y-72973171D01*
X102483706Y-72981398D01*
X102344889Y-73120215D01*
X102219951Y-73292179D01*
X102123444Y-73481585D01*
X102057753Y-73683760D01*
X102024500Y-73893713D01*
X102024500Y-74106286D01*
X102057753Y-74316239D01*
X102123444Y-74518414D01*
X102219951Y-74707820D01*
X102344890Y-74879786D01*
X102495209Y-75030105D01*
X102495214Y-75030109D01*
X102660218Y-75149991D01*
X102702884Y-75205320D01*
X102708863Y-75274934D01*
X102676258Y-75336729D01*
X102660218Y-75350627D01*
X102495540Y-75470272D01*
X102495535Y-75470276D01*
X102345276Y-75620535D01*
X102345272Y-75620540D01*
X102220379Y-75792442D01*
X102123904Y-75981782D01*
X102058242Y-76183870D01*
X102058242Y-76183873D01*
X102047769Y-76250000D01*
X103095854Y-76250000D01*
X103057370Y-76316657D01*
X103025000Y-76437465D01*
X103025000Y-76562535D01*
X103057370Y-76683343D01*
X103095854Y-76750000D01*
X102047769Y-76750000D01*
X102058242Y-76816126D01*
X102058242Y-76816129D01*
X102123904Y-77018217D01*
X102220379Y-77207557D01*
X102345272Y-77379459D01*
X102345276Y-77379464D01*
X102495535Y-77529723D01*
X102495540Y-77529727D01*
X102660218Y-77649372D01*
X102702884Y-77704701D01*
X102708863Y-77774315D01*
X102676258Y-77836110D01*
X102660218Y-77850008D01*
X102495214Y-77969890D01*
X102495209Y-77969894D01*
X102344890Y-78120213D01*
X102219951Y-78292179D01*
X102123444Y-78481585D01*
X102057753Y-78683760D01*
X102024500Y-78893713D01*
X102024500Y-79106286D01*
X102057753Y-79316239D01*
X102123444Y-79518414D01*
X102219951Y-79707820D01*
X102344890Y-79879786D01*
X102495213Y-80030109D01*
X102667179Y-80155048D01*
X102667181Y-80155049D01*
X102667184Y-80155051D01*
X102856588Y-80251557D01*
X103058757Y-80317246D01*
X103268713Y-80350500D01*
X103268714Y-80350500D01*
X103731286Y-80350500D01*
X103731287Y-80350500D01*
X103941243Y-80317246D01*
X104143412Y-80251557D01*
X104332816Y-80155051D01*
X104354789Y-80139086D01*
X104504786Y-80030109D01*
X104504788Y-80030106D01*
X104504792Y-80030104D01*
X104655104Y-79879792D01*
X104655106Y-79879788D01*
X104655109Y-79879786D01*
X104780048Y-79707820D01*
X104780047Y-79707820D01*
X104780051Y-79707816D01*
X104876557Y-79518412D01*
X104942246Y-79316243D01*
X104975500Y-79106287D01*
X104975500Y-78893713D01*
X104942246Y-78683757D01*
X104876557Y-78481588D01*
X104780051Y-78292184D01*
X104780049Y-78292181D01*
X104780048Y-78292179D01*
X104655109Y-78120213D01*
X104504790Y-77969894D01*
X104504785Y-77969890D01*
X104339781Y-77850008D01*
X104297115Y-77794678D01*
X104291136Y-77725065D01*
X104323741Y-77663270D01*
X104339781Y-77649371D01*
X104504466Y-77529721D01*
X104654723Y-77379464D01*
X104654727Y-77379459D01*
X104779620Y-77207557D01*
X104876095Y-77018217D01*
X104941757Y-76816129D01*
X104941757Y-76816126D01*
X104952231Y-76750000D01*
X103904146Y-76750000D01*
X103942630Y-76683343D01*
X103975000Y-76562535D01*
X103975000Y-76437465D01*
X103942630Y-76316657D01*
X103904146Y-76250000D01*
X104952231Y-76250000D01*
X104941757Y-76183873D01*
X104941757Y-76183870D01*
X104876095Y-75981782D01*
X104779620Y-75792442D01*
X104654727Y-75620540D01*
X104654723Y-75620535D01*
X104504464Y-75470276D01*
X104504459Y-75470272D01*
X104339781Y-75350627D01*
X104297115Y-75295297D01*
X104291136Y-75225684D01*
X104323741Y-75163889D01*
X104339776Y-75149994D01*
X104504792Y-75030104D01*
X104655104Y-74879792D01*
X104655106Y-74879788D01*
X104655109Y-74879786D01*
X104780048Y-74707820D01*
X104780047Y-74707820D01*
X104780051Y-74707816D01*
X104876557Y-74518412D01*
X104942246Y-74316243D01*
X104975500Y-74106287D01*
X104975500Y-73893713D01*
X104942246Y-73683757D01*
X104876557Y-73481588D01*
X104780051Y-73292184D01*
X104780049Y-73292181D01*
X104780048Y-73292179D01*
X104655109Y-73120213D01*
X104516294Y-72981398D01*
X104482809Y-72920075D01*
X104487793Y-72850383D01*
X104529665Y-72794450D01*
X104538879Y-72788178D01*
X104544331Y-72784814D01*
X104544334Y-72784814D01*
X104693656Y-72692712D01*
X104817712Y-72568656D01*
X104909814Y-72419334D01*
X104964999Y-72252797D01*
X104975500Y-72150009D01*
X104975499Y-70849992D01*
X104964999Y-70747203D01*
X104909814Y-70580666D01*
X104817712Y-70431344D01*
X104693656Y-70307288D01*
X104544334Y-70215186D01*
X104377797Y-70160001D01*
X104377795Y-70160000D01*
X104275010Y-70149500D01*
X102724998Y-70149500D01*
X102724981Y-70149501D01*
X102622203Y-70160000D01*
X102622200Y-70160001D01*
X102495971Y-70201830D01*
X102426143Y-70204232D01*
X102366101Y-70168500D01*
X102334908Y-70105980D01*
X102335350Y-70059933D01*
X102350499Y-69983770D01*
X102350500Y-69983768D01*
X102350500Y-69816232D01*
X102350499Y-69816228D01*
X102317817Y-69651925D01*
X102317816Y-69651918D01*
X102253703Y-69497137D01*
X102222537Y-69450494D01*
X102160626Y-69357837D01*
X102042162Y-69239373D01*
X101902860Y-69146295D01*
X101748082Y-69082184D01*
X101748074Y-69082182D01*
X101583771Y-69049500D01*
X101583767Y-69049500D01*
X101416233Y-69049500D01*
X101416228Y-69049500D01*
X101251925Y-69082182D01*
X101251917Y-69082184D01*
X101097139Y-69146295D01*
X100957837Y-69239373D01*
X100839373Y-69357837D01*
X100746295Y-69497139D01*
X100682184Y-69651917D01*
X100682182Y-69651925D01*
X100649500Y-69816228D01*
X90825500Y-69816228D01*
X90825500Y-66374500D01*
X90845185Y-66307461D01*
X90897989Y-66261706D01*
X90949500Y-66250500D01*
X91073920Y-66250500D01*
X91174503Y-66230492D01*
X91218913Y-66221658D01*
X91355495Y-66165084D01*
X91431111Y-66114559D01*
X91497786Y-66093682D01*
X91565166Y-66112166D01*
X91568848Y-66114531D01*
X91644505Y-66165084D01*
X91644507Y-66165085D01*
X91644511Y-66165087D01*
X91781082Y-66221656D01*
X91781087Y-66221658D01*
X91781091Y-66221658D01*
X91781092Y-66221659D01*
X91926079Y-66250500D01*
X91926082Y-66250500D01*
X92073920Y-66250500D01*
X92174503Y-66230492D01*
X92218913Y-66221658D01*
X92355495Y-66165084D01*
X92478416Y-66082951D01*
X92582951Y-65978416D01*
X92665084Y-65855495D01*
X92721658Y-65718913D01*
X92750500Y-65573918D01*
X92750500Y-65426082D01*
X92750500Y-65426079D01*
X92721659Y-65281093D01*
X92721658Y-65281087D01*
X92709937Y-65252790D01*
X92700500Y-65205342D01*
X92700500Y-59341518D01*
X92720185Y-59274479D01*
X92736814Y-59253842D01*
X93087820Y-58902836D01*
X93149142Y-58869352D01*
X93218834Y-58874336D01*
X93274767Y-58916208D01*
X93299184Y-58981672D01*
X93299500Y-58990518D01*
X93299500Y-65205342D01*
X93290062Y-65252793D01*
X93278341Y-65281090D01*
X93278340Y-65281093D01*
X93249500Y-65426079D01*
X93249500Y-65426082D01*
X93249500Y-65573918D01*
X93249500Y-65573920D01*
X93249499Y-65573920D01*
X93278340Y-65718907D01*
X93278343Y-65718917D01*
X93334912Y-65855488D01*
X93334919Y-65855501D01*
X93417048Y-65978415D01*
X93417051Y-65978419D01*
X93521580Y-66082948D01*
X93521584Y-66082951D01*
X93644498Y-66165080D01*
X93644511Y-66165087D01*
X93781082Y-66221656D01*
X93781087Y-66221658D01*
X93781091Y-66221658D01*
X93781092Y-66221659D01*
X93926079Y-66250500D01*
X93926082Y-66250500D01*
X94073920Y-66250500D01*
X94174503Y-66230492D01*
X94218913Y-66221658D01*
X94355495Y-66165084D01*
X94478416Y-66082951D01*
X94582951Y-65978416D01*
X94665084Y-65855495D01*
X94721658Y-65718913D01*
X94750500Y-65573918D01*
X94750500Y-65426082D01*
X94750500Y-65426079D01*
X94721659Y-65281093D01*
X94721658Y-65281087D01*
X94709937Y-65252790D01*
X94700500Y-65205342D01*
X94700500Y-61407702D01*
X94720185Y-61340663D01*
X94772989Y-61294908D01*
X94842147Y-61284964D01*
X94848667Y-61286080D01*
X94905435Y-61297372D01*
X94921157Y-61300500D01*
X94921158Y-61300500D01*
X95078844Y-61300500D01*
X95078845Y-61300499D01*
X95233497Y-61269737D01*
X95308963Y-61238478D01*
X95377864Y-61209939D01*
X95425316Y-61200500D01*
X100068996Y-61200500D01*
X100160040Y-61182389D01*
X100204328Y-61173580D01*
X100268069Y-61147177D01*
X100331807Y-61120777D01*
X100331808Y-61120776D01*
X100331811Y-61120775D01*
X100446543Y-61044114D01*
X107287819Y-54202838D01*
X107349142Y-54169353D01*
X107418834Y-54174337D01*
X107474767Y-54216209D01*
X107499184Y-54281673D01*
X107499500Y-54290519D01*
X107499500Y-116375500D01*
X107479815Y-116442539D01*
X107427011Y-116488294D01*
X107375500Y-116499500D01*
X102086443Y-116499500D01*
X102019404Y-116479815D01*
X101973649Y-116427011D01*
X101962972Y-116386938D01*
X101962104Y-116377575D01*
X101962104Y-116377570D01*
X101961717Y-116375500D01*
X101885637Y-115968507D01*
X101771755Y-115568252D01*
X101621427Y-115180212D01*
X101435937Y-114807697D01*
X101216867Y-114453887D01*
X101044843Y-114226091D01*
X100966090Y-114121804D01*
X100966083Y-114121796D01*
X100827104Y-113969344D01*
X100735512Y-113868872D01*
X102999500Y-113868872D01*
X102999500Y-114131127D01*
X103023709Y-114314998D01*
X103033730Y-114391116D01*
X103069629Y-114525092D01*
X103101602Y-114644418D01*
X103101605Y-114644428D01*
X103201953Y-114886690D01*
X103201958Y-114886700D01*
X103333075Y-115113803D01*
X103492718Y-115321851D01*
X103492726Y-115321860D01*
X103678140Y-115507274D01*
X103678148Y-115507281D01*
X103886196Y-115666924D01*
X104113299Y-115798041D01*
X104113309Y-115798046D01*
X104355571Y-115898394D01*
X104355581Y-115898398D01*
X104608884Y-115966270D01*
X104868880Y-116000500D01*
X104868887Y-116000500D01*
X105131113Y-116000500D01*
X105131120Y-116000500D01*
X105391116Y-115966270D01*
X105644419Y-115898398D01*
X105886697Y-115798043D01*
X106113803Y-115666924D01*
X106321851Y-115507282D01*
X106321855Y-115507277D01*
X106321860Y-115507274D01*
X106507274Y-115321860D01*
X106507277Y-115321855D01*
X106507282Y-115321851D01*
X106666924Y-115113803D01*
X106798043Y-114886697D01*
X106898398Y-114644419D01*
X106966270Y-114391116D01*
X107000500Y-114131120D01*
X107000500Y-113868880D01*
X106966270Y-113608884D01*
X106898398Y-113355581D01*
X106885731Y-113325000D01*
X106798046Y-113113309D01*
X106798041Y-113113299D01*
X106666924Y-112886196D01*
X106507281Y-112678148D01*
X106507274Y-112678140D01*
X106321860Y-112492726D01*
X106321851Y-112492718D01*
X106113803Y-112333075D01*
X105886700Y-112201958D01*
X105886690Y-112201953D01*
X105644428Y-112101605D01*
X105644421Y-112101603D01*
X105644419Y-112101602D01*
X105391116Y-112033730D01*
X105333339Y-112026123D01*
X105131127Y-111999500D01*
X105131120Y-111999500D01*
X104868880Y-111999500D01*
X104868872Y-111999500D01*
X104637772Y-112029926D01*
X104608884Y-112033730D01*
X104367251Y-112098475D01*
X104355581Y-112101602D01*
X104355571Y-112101605D01*
X104113309Y-112201953D01*
X104113299Y-112201958D01*
X103886196Y-112333075D01*
X103678148Y-112492718D01*
X103492718Y-112678148D01*
X103333075Y-112886196D01*
X103201958Y-113113299D01*
X103201953Y-113113309D01*
X103101605Y-113355571D01*
X103101602Y-113355581D01*
X103053820Y-113533909D01*
X103033730Y-113608885D01*
X102999500Y-113868872D01*
X100735512Y-113868872D01*
X100685733Y-113814267D01*
X100378201Y-113533914D01*
X100378198Y-113533912D01*
X100378195Y-113533909D01*
X100046114Y-113283134D01*
X100046113Y-113283133D01*
X99692303Y-113064063D01*
X99651083Y-113043538D01*
X99319793Y-112878575D01*
X99319791Y-112878574D01*
X99202024Y-112832951D01*
X98931748Y-112728245D01*
X98931734Y-112728241D01*
X98931731Y-112728240D01*
X98531500Y-112614365D01*
X98531500Y-112614364D01*
X98122428Y-112537895D01*
X97787838Y-112506891D01*
X97708071Y-112499500D01*
X97291929Y-112499500D01*
X97216971Y-112506445D01*
X96877571Y-112537895D01*
X96877570Y-112537895D01*
X96468499Y-112614364D01*
X96468499Y-112614365D01*
X96068268Y-112728240D01*
X96068258Y-112728243D01*
X96068252Y-112728245D01*
X95907818Y-112790397D01*
X95680208Y-112878574D01*
X95680206Y-112878575D01*
X95307704Y-113064059D01*
X95307698Y-113064062D01*
X94953885Y-113283134D01*
X94621804Y-113533909D01*
X94621796Y-113533916D01*
X94314267Y-113814267D01*
X94033916Y-114121796D01*
X94033909Y-114121804D01*
X93783134Y-114453885D01*
X93564062Y-114807698D01*
X93564059Y-114807704D01*
X93378575Y-115180206D01*
X93378574Y-115180208D01*
X93323698Y-115321860D01*
X93251866Y-115507281D01*
X93228245Y-115568253D01*
X93228240Y-115568268D01*
X93114365Y-115968499D01*
X93114364Y-115968499D01*
X93037895Y-116377570D01*
X93037895Y-116377575D01*
X93037028Y-116386938D01*
X93011244Y-116451876D01*
X92954445Y-116492565D01*
X92913557Y-116499500D01*
X68624500Y-116499500D01*
X68557461Y-116479815D01*
X68511706Y-116427011D01*
X68500500Y-116375500D01*
X68500500Y-113868872D01*
X68999500Y-113868872D01*
X68999500Y-114131127D01*
X69023709Y-114314998D01*
X69033730Y-114391116D01*
X69069629Y-114525092D01*
X69101602Y-114644418D01*
X69101605Y-114644428D01*
X69201953Y-114886690D01*
X69201958Y-114886700D01*
X69333075Y-115113803D01*
X69492718Y-115321851D01*
X69492726Y-115321860D01*
X69678140Y-115507274D01*
X69678148Y-115507281D01*
X69886196Y-115666924D01*
X70113299Y-115798041D01*
X70113309Y-115798046D01*
X70355571Y-115898394D01*
X70355581Y-115898398D01*
X70608884Y-115966270D01*
X70868880Y-116000500D01*
X70868887Y-116000500D01*
X71131113Y-116000500D01*
X71131120Y-116000500D01*
X71391116Y-115966270D01*
X71644419Y-115898398D01*
X71886697Y-115798043D01*
X72113803Y-115666924D01*
X72321851Y-115507282D01*
X72321855Y-115507277D01*
X72321860Y-115507274D01*
X72507274Y-115321860D01*
X72507277Y-115321855D01*
X72507282Y-115321851D01*
X72666924Y-115113803D01*
X72798043Y-114886697D01*
X72898398Y-114644419D01*
X72966270Y-114391116D01*
X73000500Y-114131120D01*
X73000500Y-113868880D01*
X72966270Y-113608884D01*
X72898398Y-113355581D01*
X72885731Y-113325000D01*
X72798046Y-113113309D01*
X72798041Y-113113299D01*
X72666924Y-112886196D01*
X72507281Y-112678148D01*
X72507274Y-112678140D01*
X72321860Y-112492726D01*
X72321851Y-112492718D01*
X72162211Y-112370220D01*
X72162200Y-112370213D01*
X72113803Y-112333076D01*
X72113798Y-112333072D01*
X72013184Y-112274983D01*
X75899500Y-112274983D01*
X75899500Y-113625001D01*
X75899501Y-113625018D01*
X75910000Y-113727796D01*
X75910001Y-113727799D01*
X75956749Y-113868872D01*
X75965186Y-113894334D01*
X76057288Y-114043656D01*
X76181344Y-114167712D01*
X76330666Y-114259814D01*
X76497203Y-114314999D01*
X76599991Y-114325500D01*
X77400008Y-114325499D01*
X77400016Y-114325498D01*
X77400019Y-114325498D01*
X77456302Y-114319748D01*
X77502797Y-114314999D01*
X77669334Y-114259814D01*
X77818656Y-114167712D01*
X77942712Y-114043656D01*
X77982581Y-113979016D01*
X78034525Y-113932294D01*
X78103488Y-113921071D01*
X78167570Y-113948914D01*
X78175799Y-113956434D01*
X78283397Y-114064032D01*
X78423475Y-114165804D01*
X78577744Y-114244408D01*
X78742415Y-114297914D01*
X78742414Y-114297914D01*
X78749999Y-114299115D01*
X78750000Y-114299114D01*
X78750000Y-113230330D01*
X78769745Y-113250075D01*
X78855255Y-113299444D01*
X78950630Y-113325000D01*
X79049370Y-113325000D01*
X79144745Y-113299444D01*
X79230255Y-113250075D01*
X79250000Y-113230330D01*
X79250000Y-114299115D01*
X79257584Y-114297914D01*
X79422255Y-114244408D01*
X79576524Y-114165804D01*
X79716602Y-114064032D01*
X79839032Y-113941602D01*
X79940804Y-113801524D01*
X80019408Y-113647257D01*
X80072914Y-113482584D01*
X80100000Y-113311571D01*
X80100000Y-113200000D01*
X79280330Y-113200000D01*
X79300075Y-113180255D01*
X79349444Y-113094745D01*
X79375000Y-112999370D01*
X79375000Y-112900630D01*
X79349444Y-112805255D01*
X79300075Y-112719745D01*
X79280330Y-112700000D01*
X80100000Y-112700000D01*
X80100000Y-112588432D01*
X80096796Y-112568202D01*
X80096796Y-112568199D01*
X80094252Y-112552135D01*
X85059500Y-112552135D01*
X85059500Y-114447870D01*
X85059501Y-114447876D01*
X85065908Y-114507483D01*
X85116202Y-114642328D01*
X85116206Y-114642335D01*
X85202452Y-114757544D01*
X85202455Y-114757547D01*
X85317664Y-114843793D01*
X85317671Y-114843797D01*
X85452517Y-114894091D01*
X85452516Y-114894091D01*
X85459444Y-114894835D01*
X85512127Y-114900500D01*
X86677872Y-114900499D01*
X86737483Y-114894091D01*
X86872331Y-114843796D01*
X86872335Y-114843792D01*
X86880118Y-114839544D01*
X86881269Y-114841653D01*
X86934614Y-114821749D01*
X86990928Y-114830870D01*
X87062956Y-114860706D01*
X87062960Y-114860706D01*
X87062961Y-114860707D01*
X87263009Y-114900500D01*
X87263012Y-114900500D01*
X87466990Y-114900500D01*
X87617560Y-114870549D01*
X87667044Y-114860706D01*
X87855493Y-114782648D01*
X87931558Y-114731822D01*
X87998234Y-114710944D01*
X88065614Y-114729428D01*
X88069339Y-114731822D01*
X88144742Y-114782204D01*
X88333101Y-114860225D01*
X88333109Y-114860227D01*
X88384999Y-114870549D01*
X88385000Y-114870549D01*
X88385000Y-114057122D01*
X88387383Y-114032929D01*
X88400500Y-113966989D01*
X88400500Y-113884226D01*
X88461306Y-113919333D01*
X88575756Y-113950000D01*
X88694244Y-113950000D01*
X88808694Y-113919333D01*
X88869500Y-113884226D01*
X88869500Y-113966989D01*
X88882617Y-114032929D01*
X88885000Y-114057122D01*
X88885000Y-114870549D01*
X88936890Y-114860227D01*
X88936898Y-114860225D01*
X89125252Y-114782206D01*
X89125256Y-114782204D01*
X89200658Y-114731822D01*
X89267336Y-114710944D01*
X89334716Y-114729428D01*
X89338401Y-114731796D01*
X89414507Y-114782648D01*
X89414509Y-114782649D01*
X89414513Y-114782651D01*
X89602951Y-114860704D01*
X89602956Y-114860706D01*
X89602960Y-114860706D01*
X89602961Y-114860707D01*
X89803009Y-114900500D01*
X89803012Y-114900500D01*
X90006990Y-114900500D01*
X90157560Y-114870549D01*
X90207044Y-114860706D01*
X90395493Y-114782648D01*
X90396158Y-114782204D01*
X90471558Y-114731823D01*
X90565093Y-114669325D01*
X90709325Y-114525093D01*
X90822648Y-114355493D01*
X90835072Y-114325500D01*
X90900704Y-114167048D01*
X90900706Y-114167044D01*
X90922571Y-114057122D01*
X90940500Y-113966990D01*
X90940500Y-113033009D01*
X90900707Y-112832961D01*
X90900706Y-112832960D01*
X90900706Y-112832956D01*
X90889232Y-112805255D01*
X90822651Y-112644513D01*
X90822644Y-112644500D01*
X90709325Y-112474907D01*
X90709322Y-112474903D01*
X90565096Y-112330677D01*
X90565092Y-112330674D01*
X90395499Y-112217355D01*
X90395486Y-112217348D01*
X90207048Y-112139295D01*
X90207038Y-112139292D01*
X90006990Y-112099500D01*
X90006988Y-112099500D01*
X89803012Y-112099500D01*
X89803010Y-112099500D01*
X89602961Y-112139292D01*
X89602951Y-112139295D01*
X89414511Y-112217349D01*
X89338438Y-112268178D01*
X89271760Y-112289054D01*
X89204380Y-112270568D01*
X89200659Y-112268177D01*
X89125254Y-112217794D01*
X88936896Y-112139773D01*
X88936893Y-112139772D01*
X88885000Y-112129449D01*
X88885000Y-112942876D01*
X88882943Y-112965366D01*
X88882780Y-112966246D01*
X88869500Y-113033012D01*
X88869500Y-113038256D01*
X88869500Y-113115773D01*
X88808694Y-113080667D01*
X88694244Y-113050000D01*
X88575756Y-113050000D01*
X88461306Y-113080667D01*
X88400500Y-113115773D01*
X88400500Y-113038256D01*
X88400500Y-113033012D01*
X88387219Y-112966246D01*
X88387057Y-112965366D01*
X88387138Y-112964582D01*
X88385000Y-112942876D01*
X88385000Y-112129450D01*
X88384999Y-112129449D01*
X88333106Y-112139772D01*
X88333103Y-112139773D01*
X88144745Y-112217794D01*
X88069339Y-112268178D01*
X88002661Y-112289055D01*
X87935281Y-112270570D01*
X87931558Y-112268177D01*
X87856154Y-112217794D01*
X87855493Y-112217352D01*
X87855492Y-112217351D01*
X87855490Y-112217350D01*
X87667048Y-112139295D01*
X87667038Y-112139292D01*
X87466990Y-112099500D01*
X87466988Y-112099500D01*
X87263012Y-112099500D01*
X87263010Y-112099500D01*
X87062962Y-112139292D01*
X87062959Y-112139293D01*
X87062957Y-112139293D01*
X87062956Y-112139294D01*
X87015487Y-112158956D01*
X86990927Y-112169129D01*
X86921458Y-112176597D01*
X86880931Y-112158956D01*
X86880114Y-112160454D01*
X86872328Y-112156202D01*
X86737482Y-112105908D01*
X86737483Y-112105908D01*
X86677883Y-112099501D01*
X86677881Y-112099500D01*
X86677873Y-112099500D01*
X86677864Y-112099500D01*
X85512129Y-112099500D01*
X85512123Y-112099501D01*
X85452516Y-112105908D01*
X85317671Y-112156202D01*
X85317664Y-112156206D01*
X85202455Y-112242452D01*
X85202452Y-112242455D01*
X85116206Y-112357664D01*
X85116202Y-112357671D01*
X85065908Y-112492517D01*
X85059501Y-112552116D01*
X85059500Y-112552135D01*
X80094252Y-112552135D01*
X80072914Y-112417415D01*
X80019408Y-112252742D01*
X79940804Y-112098475D01*
X79839032Y-111958397D01*
X79716602Y-111835967D01*
X79576524Y-111734195D01*
X79422257Y-111655591D01*
X79257589Y-111602087D01*
X79257581Y-111602085D01*
X79250000Y-111600884D01*
X79250000Y-112669670D01*
X79230255Y-112649925D01*
X79144745Y-112600556D01*
X79049370Y-112575000D01*
X78950630Y-112575000D01*
X78855255Y-112600556D01*
X78769745Y-112649925D01*
X78750000Y-112669670D01*
X78750000Y-111600884D01*
X78749999Y-111600884D01*
X78742418Y-111602085D01*
X78742410Y-111602087D01*
X78577742Y-111655591D01*
X78423475Y-111734195D01*
X78283401Y-111835964D01*
X78175799Y-111943566D01*
X78114476Y-111977050D01*
X78044784Y-111972066D01*
X77988851Y-111930194D01*
X77982585Y-111920988D01*
X77942712Y-111856344D01*
X77818656Y-111732288D01*
X77669334Y-111640186D01*
X77502797Y-111585001D01*
X77502795Y-111585000D01*
X77400010Y-111574500D01*
X76599998Y-111574500D01*
X76599980Y-111574501D01*
X76497203Y-111585000D01*
X76497200Y-111585001D01*
X76330668Y-111640185D01*
X76330663Y-111640187D01*
X76181342Y-111732289D01*
X76057289Y-111856342D01*
X75965187Y-112005663D01*
X75965186Y-112005666D01*
X75910001Y-112172203D01*
X75910001Y-112172204D01*
X75910000Y-112172204D01*
X75899500Y-112274983D01*
X72013184Y-112274983D01*
X71886700Y-112201958D01*
X71886690Y-112201953D01*
X71644428Y-112101605D01*
X71644421Y-112101603D01*
X71644419Y-112101602D01*
X71391116Y-112033730D01*
X71333339Y-112026123D01*
X71131127Y-111999500D01*
X71131120Y-111999500D01*
X70868880Y-111999500D01*
X70868872Y-111999500D01*
X70637772Y-112029926D01*
X70608884Y-112033730D01*
X70367251Y-112098475D01*
X70355581Y-112101602D01*
X70355571Y-112101605D01*
X70113309Y-112201953D01*
X70113299Y-112201958D01*
X69886196Y-112333075D01*
X69678148Y-112492718D01*
X69492718Y-112678148D01*
X69333075Y-112886196D01*
X69201958Y-113113299D01*
X69201953Y-113113309D01*
X69101605Y-113355571D01*
X69101602Y-113355581D01*
X69053820Y-113533909D01*
X69033730Y-113608885D01*
X68999500Y-113868872D01*
X68500500Y-113868872D01*
X68500500Y-42624000D01*
X68520185Y-42556961D01*
X68572989Y-42511206D01*
X68624500Y-42500000D01*
X82209981Y-42500000D01*
X82277020Y-42519685D01*
G37*
%TD.AperFunction*%
%TA.AperFunction,Conductor*%
G36*
X82765270Y-88761717D02*
G01*
X82765270Y-88761716D01*
X82804622Y-88707555D01*
X82809232Y-88698507D01*
X82857205Y-88647709D01*
X82925025Y-88630912D01*
X82991161Y-88653447D01*
X83030204Y-88698504D01*
X83034949Y-88707817D01*
X83159890Y-88879786D01*
X83310213Y-89030109D01*
X83482179Y-89155048D01*
X83482181Y-89155049D01*
X83482184Y-89155051D01*
X83671588Y-89251557D01*
X83873757Y-89317246D01*
X84083713Y-89350500D01*
X84083714Y-89350500D01*
X84296286Y-89350500D01*
X84296287Y-89350500D01*
X84506243Y-89317246D01*
X84616183Y-89281523D01*
X84686023Y-89279529D01*
X84745856Y-89315609D01*
X84776684Y-89378310D01*
X84778500Y-89399455D01*
X84778500Y-89909188D01*
X84778500Y-90047176D01*
X84778500Y-90047178D01*
X84778499Y-90047178D01*
X84805418Y-90182504D01*
X84805421Y-90182514D01*
X84858222Y-90309989D01*
X84934887Y-90424727D01*
X84938751Y-90429435D01*
X84937053Y-90430827D01*
X84965807Y-90483485D01*
X84960823Y-90553177D01*
X84918951Y-90609110D01*
X84864039Y-90632316D01*
X84742302Y-90651597D01*
X84742299Y-90651598D01*
X84625210Y-90689643D01*
X84577552Y-90705128D01*
X84423211Y-90783768D01*
X84351636Y-90835771D01*
X84283072Y-90885586D01*
X84283070Y-90885588D01*
X84283069Y-90885588D01*
X84160588Y-91008069D01*
X84160581Y-91008078D01*
X84100317Y-91091023D01*
X84044987Y-91133689D01*
X83975374Y-91139667D01*
X83913579Y-91107061D01*
X83899683Y-91091023D01*
X83851899Y-91025257D01*
X83839414Y-91008072D01*
X83716928Y-90885586D01*
X83576788Y-90783768D01*
X83422445Y-90705127D01*
X83257701Y-90651598D01*
X83257699Y-90651597D01*
X83257698Y-90651597D01*
X83126271Y-90630781D01*
X83086611Y-90624500D01*
X82913389Y-90624500D01*
X82873728Y-90630781D01*
X82742302Y-90651597D01*
X82742299Y-90651598D01*
X82625210Y-90689643D01*
X82577552Y-90705128D01*
X82423211Y-90783768D01*
X82351636Y-90835771D01*
X82283072Y-90885586D01*
X82283070Y-90885588D01*
X82283069Y-90885588D01*
X82160588Y-91008069D01*
X82160588Y-91008070D01*
X82160586Y-91008072D01*
X82125859Y-91055869D01*
X82058768Y-91148211D01*
X81980128Y-91302552D01*
X81926597Y-91467302D01*
X81899500Y-91638389D01*
X81899500Y-91859481D01*
X81879815Y-91926520D01*
X81827011Y-91972275D01*
X81757853Y-91982219D01*
X81694297Y-91953194D01*
X81687819Y-91947162D01*
X81236819Y-91496162D01*
X81203334Y-91434839D01*
X81200500Y-91408481D01*
X81200500Y-90689640D01*
X81173581Y-90554313D01*
X81173580Y-90554312D01*
X81173580Y-90554308D01*
X81120775Y-90426825D01*
X81119371Y-90424724D01*
X81044114Y-90312093D01*
X81044112Y-90312090D01*
X81044111Y-90312089D01*
X79960590Y-89228569D01*
X79955058Y-89218438D01*
X79946102Y-89211155D01*
X79938617Y-89188329D01*
X79927105Y-89167246D01*
X79927928Y-89155731D01*
X79924332Y-89144763D01*
X79930375Y-89121515D01*
X79932089Y-89097554D01*
X79939457Y-89086579D01*
X79941911Y-89077141D01*
X79956482Y-89061222D01*
X79964179Y-89049759D01*
X79969510Y-89044838D01*
X79989792Y-89030104D01*
X80140104Y-88879792D01*
X80140106Y-88879788D01*
X80140109Y-88879786D01*
X80225890Y-88761717D01*
X80265051Y-88707816D01*
X80269793Y-88698508D01*
X80317763Y-88647711D01*
X80385583Y-88630911D01*
X80451719Y-88653445D01*
X80490763Y-88698500D01*
X80495373Y-88707547D01*
X80534728Y-88761716D01*
X81167037Y-88129408D01*
X81184075Y-88192993D01*
X81249901Y-88307007D01*
X81342993Y-88400099D01*
X81457007Y-88465925D01*
X81520590Y-88482962D01*
X80888282Y-89115269D01*
X80888282Y-89115270D01*
X80942449Y-89154624D01*
X81131782Y-89251095D01*
X81333870Y-89316757D01*
X81543754Y-89350000D01*
X81756246Y-89350000D01*
X81966127Y-89316757D01*
X81966130Y-89316757D01*
X82168217Y-89251095D01*
X82357554Y-89154622D01*
X82411716Y-89115270D01*
X82411717Y-89115270D01*
X81779408Y-88482962D01*
X81842993Y-88465925D01*
X81957007Y-88400099D01*
X82050099Y-88307007D01*
X82115925Y-88192993D01*
X82132962Y-88129408D01*
X82765270Y-88761717D01*
G37*
%TD.AperFunction*%
%TA.AperFunction,Conductor*%
G36*
X90611444Y-88653999D02*
G01*
X90650486Y-88699056D01*
X90654951Y-88707820D01*
X90779890Y-88879786D01*
X90930209Y-89030105D01*
X90930214Y-89030109D01*
X90945757Y-89041402D01*
X90988423Y-89096732D01*
X90994402Y-89166345D01*
X90961796Y-89228140D01*
X90934872Y-89249107D01*
X90856287Y-89294477D01*
X90856282Y-89294481D01*
X90744478Y-89406286D01*
X89493680Y-90657083D01*
X89432357Y-90690568D01*
X89367681Y-90687333D01*
X89257698Y-90651597D01*
X89126271Y-90630781D01*
X89086611Y-90624500D01*
X88913389Y-90624500D01*
X88843897Y-90635506D01*
X88774604Y-90626551D01*
X88721152Y-90581555D01*
X88700513Y-90514803D01*
X88700500Y-90513033D01*
X88700500Y-89405628D01*
X88720185Y-89338589D01*
X88772989Y-89292834D01*
X88842147Y-89282890D01*
X88862804Y-89287693D01*
X88953757Y-89317246D01*
X89163713Y-89350500D01*
X89163714Y-89350500D01*
X89376286Y-89350500D01*
X89376287Y-89350500D01*
X89586243Y-89317246D01*
X89788412Y-89251557D01*
X89977816Y-89155051D01*
X90050820Y-89102011D01*
X90149786Y-89030109D01*
X90149788Y-89030106D01*
X90149792Y-89030104D01*
X90300104Y-88879792D01*
X90300106Y-88879788D01*
X90300109Y-88879786D01*
X90423902Y-88709397D01*
X90425051Y-88707816D01*
X90429514Y-88699054D01*
X90477488Y-88648259D01*
X90545308Y-88631463D01*
X90611444Y-88653999D01*
G37*
%TD.AperFunction*%
%TA.AperFunction,Conductor*%
G36*
X84612510Y-84206435D02*
G01*
X84633550Y-84207563D01*
X84645364Y-84216082D01*
X84659336Y-84220185D01*
X84673131Y-84236105D01*
X84690222Y-84248430D01*
X84695554Y-84261983D01*
X84705091Y-84272989D01*
X84708089Y-84293843D01*
X84715803Y-84313448D01*
X84714473Y-84338244D01*
X84715035Y-84342147D01*
X84713914Y-84348691D01*
X84699500Y-84421153D01*
X84699500Y-84578846D01*
X84730261Y-84733489D01*
X84730264Y-84733501D01*
X84790602Y-84879172D01*
X84790609Y-84879185D01*
X84821043Y-84924732D01*
X84841921Y-84991409D01*
X84823437Y-85058790D01*
X84786832Y-85096725D01*
X84739711Y-85128210D01*
X84739707Y-85128213D01*
X84628213Y-85239707D01*
X84628210Y-85239711D01*
X84540609Y-85370814D01*
X84540602Y-85370827D01*
X84480264Y-85516498D01*
X84480261Y-85516510D01*
X84449500Y-85671153D01*
X84449500Y-85828846D01*
X84480261Y-85983489D01*
X84480264Y-85983501D01*
X84540602Y-86129172D01*
X84540609Y-86129185D01*
X84628210Y-86260288D01*
X84628213Y-86260292D01*
X84742181Y-86374260D01*
X84756884Y-86401187D01*
X84773477Y-86427006D01*
X84774368Y-86433206D01*
X84775666Y-86435583D01*
X84778500Y-86461941D01*
X84778500Y-86600544D01*
X84758815Y-86667583D01*
X84706011Y-86713338D01*
X84636853Y-86723282D01*
X84616183Y-86718475D01*
X84506244Y-86682754D01*
X84506240Y-86682753D01*
X84344957Y-86657208D01*
X84296287Y-86649500D01*
X84083713Y-86649500D01*
X84035042Y-86657208D01*
X83873760Y-86682753D01*
X83671585Y-86748444D01*
X83482179Y-86844951D01*
X83310213Y-86969890D01*
X83159890Y-87120213D01*
X83034949Y-87292182D01*
X83030202Y-87301499D01*
X82982227Y-87352293D01*
X82914405Y-87369087D01*
X82848271Y-87346548D01*
X82809234Y-87301495D01*
X82804626Y-87292452D01*
X82765270Y-87238282D01*
X82765269Y-87238282D01*
X82132962Y-87870590D01*
X82115925Y-87807007D01*
X82050099Y-87692993D01*
X81957007Y-87599901D01*
X81842993Y-87534075D01*
X81779408Y-87517037D01*
X82411716Y-86884728D01*
X82357550Y-86845375D01*
X82168217Y-86748904D01*
X81966129Y-86683242D01*
X81756246Y-86650000D01*
X81750018Y-86650000D01*
X81682979Y-86630315D01*
X81637224Y-86577511D01*
X81627280Y-86508353D01*
X81656305Y-86444797D01*
X81662337Y-86438319D01*
X82182461Y-85918196D01*
X83863838Y-84236819D01*
X83925161Y-84203334D01*
X83951519Y-84200500D01*
X84592297Y-84200500D01*
X84612510Y-84206435D01*
G37*
%TD.AperFunction*%
%TA.AperFunction,Conductor*%
G36*
X97713518Y-84202126D02*
G01*
X97718597Y-84201210D01*
X97752794Y-84209939D01*
X97767625Y-84216082D01*
X97781087Y-84221658D01*
X97781091Y-84221658D01*
X97781092Y-84221659D01*
X97926079Y-84250500D01*
X98050500Y-84250500D01*
X98117539Y-84270185D01*
X98163294Y-84322989D01*
X98174500Y-84374500D01*
X98174500Y-86602339D01*
X98154815Y-86669378D01*
X98102011Y-86715133D01*
X98032853Y-86725077D01*
X97991484Y-86707944D01*
X97990114Y-86710454D01*
X97982328Y-86706202D01*
X97847482Y-86655908D01*
X97847483Y-86655908D01*
X97787883Y-86649501D01*
X97787881Y-86649500D01*
X97787873Y-86649500D01*
X97787864Y-86649500D01*
X95992129Y-86649500D01*
X95992123Y-86649501D01*
X95932516Y-86655908D01*
X95797671Y-86706202D01*
X95797664Y-86706206D01*
X95682455Y-86792452D01*
X95682452Y-86792455D01*
X95596206Y-86907664D01*
X95596203Y-86907669D01*
X95547189Y-87039083D01*
X95505317Y-87095016D01*
X95439853Y-87119433D01*
X95371580Y-87104581D01*
X95343326Y-87083430D01*
X95229786Y-86969890D01*
X95057820Y-86844951D01*
X94868414Y-86748444D01*
X94868413Y-86748443D01*
X94868412Y-86748443D01*
X94666243Y-86682754D01*
X94666241Y-86682753D01*
X94666240Y-86682753D01*
X94504957Y-86657208D01*
X94456287Y-86649500D01*
X94243713Y-86649500D01*
X94195042Y-86657208D01*
X94033760Y-86682753D01*
X93831585Y-86748444D01*
X93642179Y-86844951D01*
X93470213Y-86969890D01*
X93319890Y-87120213D01*
X93194949Y-87292182D01*
X93190484Y-87300946D01*
X93142509Y-87351742D01*
X93074688Y-87368536D01*
X93008553Y-87345998D01*
X92969516Y-87300946D01*
X92965050Y-87292182D01*
X92840109Y-87120213D01*
X92689786Y-86969890D01*
X92517820Y-86844951D01*
X92328414Y-86748444D01*
X92328413Y-86748443D01*
X92328412Y-86748443D01*
X92126243Y-86682754D01*
X92126241Y-86682753D01*
X92126240Y-86682753D01*
X91964957Y-86657208D01*
X91916287Y-86649500D01*
X91703713Y-86649500D01*
X91655042Y-86657208D01*
X91493760Y-86682753D01*
X91291585Y-86748444D01*
X91102179Y-86844951D01*
X90930213Y-86969890D01*
X90779890Y-87120213D01*
X90654949Y-87292182D01*
X90650484Y-87300946D01*
X90602509Y-87351742D01*
X90534688Y-87368536D01*
X90468553Y-87345998D01*
X90429516Y-87300946D01*
X90425050Y-87292182D01*
X90300109Y-87120213D01*
X90149786Y-86969890D01*
X89977820Y-86844951D01*
X89788414Y-86748444D01*
X89788413Y-86748443D01*
X89788412Y-86748443D01*
X89586243Y-86682754D01*
X89586241Y-86682753D01*
X89586240Y-86682753D01*
X89424957Y-86657208D01*
X89376287Y-86649500D01*
X89163713Y-86649500D01*
X89124202Y-86655757D01*
X88953759Y-86682753D01*
X88862818Y-86712302D01*
X88792977Y-86714297D01*
X88733144Y-86678216D01*
X88702316Y-86615515D01*
X88700500Y-86594371D01*
X88700500Y-86181004D01*
X88673581Y-86045677D01*
X88673580Y-86045676D01*
X88673580Y-86045672D01*
X88620775Y-85918189D01*
X88615307Y-85910006D01*
X88544114Y-85803457D01*
X88544112Y-85803454D01*
X88544109Y-85803451D01*
X87152838Y-84412181D01*
X87119353Y-84350858D01*
X87124337Y-84281166D01*
X87166209Y-84225233D01*
X87231673Y-84200816D01*
X87240519Y-84200500D01*
X97705342Y-84200500D01*
X97713518Y-84202126D01*
G37*
%TD.AperFunction*%
%TA.AperFunction,Conductor*%
G36*
X106258362Y-52880855D02*
G01*
X106295082Y-52940298D01*
X106299500Y-52973104D01*
X106299500Y-53158481D01*
X106279815Y-53225520D01*
X106263181Y-53246162D01*
X99746162Y-59763181D01*
X99684839Y-59796666D01*
X99658481Y-59799500D01*
X95425316Y-59799500D01*
X95377864Y-59790061D01*
X95233501Y-59730264D01*
X95233489Y-59730261D01*
X95078845Y-59699500D01*
X95078842Y-59699500D01*
X94921158Y-59699500D01*
X94921155Y-59699500D01*
X94848691Y-59713914D01*
X94779100Y-59707687D01*
X94723922Y-59664824D01*
X94700678Y-59598934D01*
X94700500Y-59592297D01*
X94700500Y-59341518D01*
X94720185Y-59274479D01*
X94736815Y-59253841D01*
X95286975Y-58703680D01*
X95327202Y-58676802D01*
X95355495Y-58665084D01*
X95478416Y-58582951D01*
X95582951Y-58478416D01*
X95665084Y-58355495D01*
X95721658Y-58218913D01*
X95750500Y-58073918D01*
X95750500Y-57926082D01*
X95750500Y-57926079D01*
X95721659Y-57781092D01*
X95721658Y-57781091D01*
X95721658Y-57781087D01*
X95686242Y-57695584D01*
X95665087Y-57644511D01*
X95665080Y-57644498D01*
X95582951Y-57521584D01*
X95582948Y-57521580D01*
X95478419Y-57417051D01*
X95478415Y-57417048D01*
X95382713Y-57353102D01*
X95337908Y-57299490D01*
X95329201Y-57230165D01*
X95359355Y-57167138D01*
X95382713Y-57146898D01*
X95420965Y-57121338D01*
X95478416Y-57082951D01*
X95582951Y-56978416D01*
X95665084Y-56855495D01*
X95721658Y-56718913D01*
X95738292Y-56635289D01*
X95750500Y-56573920D01*
X95750500Y-56426079D01*
X95721659Y-56281092D01*
X95721658Y-56281091D01*
X95721658Y-56281087D01*
X95689662Y-56203842D01*
X95665087Y-56144511D01*
X95665080Y-56144498D01*
X95582951Y-56021584D01*
X95582948Y-56021580D01*
X95474109Y-55912741D01*
X95475977Y-55910872D01*
X95443099Y-55862577D01*
X95441247Y-55792732D01*
X95477449Y-55732973D01*
X95540213Y-55702273D01*
X95561108Y-55700500D01*
X103068996Y-55700500D01*
X103182424Y-55677937D01*
X103204328Y-55673580D01*
X103277073Y-55643448D01*
X103331807Y-55620777D01*
X103331808Y-55620776D01*
X103331811Y-55620775D01*
X103446543Y-55544114D01*
X106044114Y-52946543D01*
X106072397Y-52904213D01*
X106126009Y-52859408D01*
X106195334Y-52850701D01*
X106258362Y-52880855D01*
G37*
%TD.AperFunction*%
%TA.AperFunction,Conductor*%
G36*
X90492539Y-43574185D02*
G01*
X90538294Y-43626989D01*
X90549500Y-43678500D01*
X90549500Y-43770701D01*
X90552401Y-43807567D01*
X90552402Y-43807573D01*
X90598254Y-43965393D01*
X90598255Y-43965396D01*
X90681917Y-44106862D01*
X90686702Y-44113031D01*
X90684256Y-44114927D01*
X90710857Y-44163642D01*
X90705873Y-44233334D01*
X90685069Y-44265703D01*
X90686702Y-44266969D01*
X90681917Y-44273137D01*
X90598255Y-44414603D01*
X90598254Y-44414606D01*
X90552402Y-44572426D01*
X90552401Y-44572432D01*
X90549500Y-44609298D01*
X90549500Y-45040701D01*
X90552401Y-45077567D01*
X90552402Y-45077573D01*
X90598254Y-45235393D01*
X90598255Y-45235396D01*
X90681917Y-45376862D01*
X90686702Y-45383031D01*
X90684256Y-45384927D01*
X90710857Y-45433642D01*
X90705873Y-45503334D01*
X90685069Y-45535703D01*
X90686702Y-45536969D01*
X90681917Y-45543137D01*
X90598255Y-45684603D01*
X90598254Y-45684606D01*
X90552402Y-45842426D01*
X90552401Y-45842432D01*
X90549500Y-45879298D01*
X90549500Y-46231704D01*
X90529815Y-46298743D01*
X90513181Y-46319385D01*
X89294480Y-47538085D01*
X89294478Y-47538088D01*
X89285604Y-47553459D01*
X89248591Y-47617569D01*
X89244360Y-47624897D01*
X89244358Y-47624899D01*
X89215424Y-47675012D01*
X89215423Y-47675013D01*
X89215422Y-47675018D01*
X89174498Y-47827746D01*
X89174498Y-47827748D01*
X89174498Y-47995849D01*
X89174499Y-47995862D01*
X89174499Y-53113573D01*
X89154814Y-53180612D01*
X89119391Y-53216674D01*
X89064711Y-53253211D01*
X89064704Y-53253217D01*
X88953213Y-53364707D01*
X88953210Y-53364711D01*
X88865609Y-53495814D01*
X88865602Y-53495827D01*
X88805264Y-53641498D01*
X88805261Y-53641510D01*
X88774500Y-53796153D01*
X88774500Y-53953846D01*
X88805261Y-54108489D01*
X88805264Y-54108501D01*
X88813361Y-54128048D01*
X88820830Y-54197517D01*
X88789555Y-54259996D01*
X88729466Y-54295648D01*
X88698800Y-54299500D01*
X85841518Y-54299500D01*
X85774479Y-54279815D01*
X85753837Y-54263181D01*
X82736819Y-51246162D01*
X82703334Y-51184839D01*
X82700500Y-51158481D01*
X82700500Y-47931004D01*
X82690893Y-47882711D01*
X82678934Y-47822591D01*
X82673580Y-47795671D01*
X82644092Y-47724481D01*
X82620775Y-47668189D01*
X82620774Y-47668188D01*
X82620771Y-47668182D01*
X82544115Y-47553459D01*
X82508135Y-47517479D01*
X82446542Y-47455886D01*
X81296072Y-46305416D01*
X81269192Y-46265187D01*
X81209397Y-46120827D01*
X81209390Y-46120814D01*
X81121789Y-45989711D01*
X81121786Y-45989707D01*
X81078363Y-45946284D01*
X81044878Y-45884961D01*
X81049862Y-45815269D01*
X81091734Y-45759336D01*
X81141848Y-45736987D01*
X81218913Y-45721658D01*
X81355495Y-45665084D01*
X81478416Y-45582951D01*
X81582951Y-45478416D01*
X81665084Y-45355495D01*
X81676802Y-45327202D01*
X81703680Y-45286975D01*
X83399838Y-43590819D01*
X83461161Y-43557334D01*
X83487519Y-43554500D01*
X90425500Y-43554500D01*
X90492539Y-43574185D01*
G37*
%TD.AperFunction*%
%TA.AperFunction,Conductor*%
G36*
X101137772Y-50613094D02*
G01*
X101164424Y-50617170D01*
X101170795Y-50622791D01*
X101178947Y-50625185D01*
X101196597Y-50645554D01*
X101216818Y-50663394D01*
X101219139Y-50671569D01*
X101224702Y-50677989D01*
X101228538Y-50704670D01*
X101235903Y-50730607D01*
X101234029Y-50742860D01*
X101234646Y-50747147D01*
X101230569Y-50765496D01*
X101230260Y-50766512D01*
X101199500Y-50921153D01*
X101199500Y-51078846D01*
X101230261Y-51233489D01*
X101230264Y-51233501D01*
X101290602Y-51379172D01*
X101290609Y-51379185D01*
X101378210Y-51510288D01*
X101378213Y-51510292D01*
X101489707Y-51621786D01*
X101489711Y-51621789D01*
X101620814Y-51709390D01*
X101620827Y-51709397D01*
X101759234Y-51766726D01*
X101766503Y-51769737D01*
X101897404Y-51795775D01*
X101921153Y-51800499D01*
X101921156Y-51800500D01*
X101921158Y-51800500D01*
X102078844Y-51800500D01*
X102148891Y-51786566D01*
X102227835Y-51770863D01*
X102297426Y-51777090D01*
X102339707Y-51804799D01*
X102342455Y-51807547D01*
X102457664Y-51893793D01*
X102457671Y-51893797D01*
X102592517Y-51944091D01*
X102592516Y-51944091D01*
X102599444Y-51944835D01*
X102652127Y-51950500D01*
X104147872Y-51950499D01*
X104207483Y-51944091D01*
X104342331Y-51893796D01*
X104457546Y-51807546D01*
X104543796Y-51692331D01*
X104559318Y-51650715D01*
X104601189Y-51594781D01*
X104666653Y-51570364D01*
X104734926Y-51585215D01*
X104784332Y-51634620D01*
X104799500Y-51694048D01*
X104799500Y-52158481D01*
X104779815Y-52225520D01*
X104763181Y-52246162D01*
X102746162Y-54263181D01*
X102684839Y-54296666D01*
X102658481Y-54299500D01*
X91301200Y-54299500D01*
X91234161Y-54279815D01*
X91188406Y-54227011D01*
X91178462Y-54157853D01*
X91186639Y-54128048D01*
X91194735Y-54108501D01*
X91194737Y-54108497D01*
X91225500Y-53953842D01*
X91225500Y-53796158D01*
X91225500Y-53796155D01*
X91225499Y-53796153D01*
X91194738Y-53641510D01*
X91194737Y-53641503D01*
X91194735Y-53641498D01*
X91134397Y-53495827D01*
X91134390Y-53495814D01*
X91095687Y-53437891D01*
X91074809Y-53371213D01*
X91093294Y-53303833D01*
X91145272Y-53257143D01*
X91198789Y-53245000D01*
X91775000Y-53245000D01*
X92275000Y-53245000D01*
X92915634Y-53245000D01*
X92915649Y-53244999D01*
X92952489Y-53242100D01*
X92952495Y-53242099D01*
X93110193Y-53196283D01*
X93110196Y-53196282D01*
X93251552Y-53112685D01*
X93251561Y-53112678D01*
X93367678Y-52996561D01*
X93367685Y-52996552D01*
X93451281Y-52855198D01*
X93497100Y-52697486D01*
X93497295Y-52695001D01*
X93497295Y-52695000D01*
X92275000Y-52695000D01*
X92275000Y-53245000D01*
X91775000Y-53245000D01*
X91775000Y-52569000D01*
X91794685Y-52501961D01*
X91847489Y-52456206D01*
X91899000Y-52445000D01*
X92025000Y-52445000D01*
X92025000Y-52319000D01*
X92044685Y-52251961D01*
X92097489Y-52206206D01*
X92149000Y-52195000D01*
X93497295Y-52195000D01*
X93497295Y-52194998D01*
X93497100Y-52192513D01*
X93451281Y-52034802D01*
X93450024Y-52032676D01*
X93449545Y-52030788D01*
X93448185Y-52027646D01*
X93448692Y-52027426D01*
X93432840Y-51964953D01*
X93454998Y-51898690D01*
X93509463Y-51854925D01*
X93523588Y-51850653D01*
X93523496Y-51850349D01*
X93529320Y-51848581D01*
X93529328Y-51848580D01*
X93628391Y-51807547D01*
X93656807Y-51795777D01*
X93656808Y-51795776D01*
X93656811Y-51795775D01*
X93771543Y-51719114D01*
X94194588Y-51296067D01*
X94201515Y-51291439D01*
X94204458Y-51287201D01*
X94234810Y-51269193D01*
X94348183Y-51222233D01*
X94417652Y-51214764D01*
X94480131Y-51246040D01*
X94515783Y-51306129D01*
X94517252Y-51312602D01*
X94527418Y-51363710D01*
X94527421Y-51363720D01*
X94580222Y-51491195D01*
X94656887Y-51605933D01*
X94656888Y-51605934D01*
X95463181Y-52412226D01*
X95496666Y-52473549D01*
X95499500Y-52499907D01*
X95499500Y-52660701D01*
X95502401Y-52697567D01*
X95502402Y-52697573D01*
X95548254Y-52855393D01*
X95548255Y-52855396D01*
X95548256Y-52855398D01*
X95563311Y-52880855D01*
X95631917Y-52996862D01*
X95631923Y-52996870D01*
X95748129Y-53113076D01*
X95748133Y-53113079D01*
X95748135Y-53113081D01*
X95889602Y-53196744D01*
X95931224Y-53208836D01*
X96047426Y-53242597D01*
X96047429Y-53242597D01*
X96047431Y-53242598D01*
X96084306Y-53245500D01*
X96084314Y-53245500D01*
X97865686Y-53245500D01*
X97865694Y-53245500D01*
X97902569Y-53242598D01*
X97902571Y-53242597D01*
X97902573Y-53242597D01*
X97991799Y-53216674D01*
X98060398Y-53196744D01*
X98201865Y-53113081D01*
X98318081Y-52996865D01*
X98401744Y-52855398D01*
X98447598Y-52697569D01*
X98450500Y-52660694D01*
X98450500Y-52229306D01*
X98447598Y-52192431D01*
X98401744Y-52034602D01*
X98318081Y-51893135D01*
X98318078Y-51893132D01*
X98313298Y-51886969D01*
X98315750Y-51885066D01*
X98289155Y-51836421D01*
X98294104Y-51766726D01*
X98314940Y-51734304D01*
X98313298Y-51733031D01*
X98318075Y-51726870D01*
X98318081Y-51726865D01*
X98401744Y-51585398D01*
X98435505Y-51469191D01*
X98447597Y-51427573D01*
X98447598Y-51427567D01*
X98450499Y-51390701D01*
X98450500Y-51390694D01*
X98450500Y-50959306D01*
X98447598Y-50922431D01*
X98447228Y-50921158D01*
X98401597Y-50764095D01*
X98401796Y-50694226D01*
X98439738Y-50635556D01*
X98503376Y-50606712D01*
X98520673Y-50605500D01*
X101111908Y-50605500D01*
X101137772Y-50613094D01*
G37*
%TD.AperFunction*%
%TA.AperFunction,Conductor*%
G36*
X101122136Y-45534939D02*
G01*
X101238049Y-45582951D01*
X101266503Y-45594737D01*
X101421153Y-45625499D01*
X101421156Y-45625500D01*
X101421158Y-45625500D01*
X101578844Y-45625500D01*
X101578845Y-45625499D01*
X101733497Y-45594737D01*
X101826525Y-45556204D01*
X101877864Y-45534939D01*
X101886040Y-45533312D01*
X101890381Y-45530523D01*
X101925316Y-45525500D01*
X102075500Y-45525500D01*
X102142539Y-45545185D01*
X102188294Y-45597989D01*
X102199500Y-45649500D01*
X102199500Y-46097870D01*
X102199501Y-46097876D01*
X102205908Y-46157483D01*
X102256202Y-46292328D01*
X102256206Y-46292335D01*
X102342452Y-46407544D01*
X102347227Y-46412319D01*
X102380712Y-46473642D01*
X102375728Y-46543334D01*
X102347227Y-46587681D01*
X102342452Y-46592455D01*
X102256206Y-46707664D01*
X102256202Y-46707671D01*
X102205908Y-46842517D01*
X102199501Y-46902116D01*
X102199500Y-46902135D01*
X102199500Y-47997870D01*
X102199501Y-47997876D01*
X102205908Y-48057483D01*
X102259303Y-48200641D01*
X102257575Y-48201285D01*
X102270095Y-48258853D01*
X102258310Y-48298988D01*
X102259303Y-48299359D01*
X102214564Y-48419313D01*
X102205909Y-48442517D01*
X102199500Y-48502127D01*
X102199500Y-48850701D01*
X102199501Y-49080500D01*
X102179817Y-49147539D01*
X102127013Y-49193294D01*
X102075501Y-49204500D01*
X98520673Y-49204500D01*
X98453634Y-49184815D01*
X98407879Y-49132011D01*
X98397935Y-49062853D01*
X98401597Y-49045905D01*
X98447597Y-48887573D01*
X98447598Y-48887567D01*
X98450499Y-48850701D01*
X98450500Y-48850694D01*
X98450500Y-48419306D01*
X98447598Y-48382431D01*
X98425877Y-48307669D01*
X98401745Y-48224606D01*
X98401744Y-48224603D01*
X98401744Y-48224602D01*
X98318081Y-48083135D01*
X98318078Y-48083132D01*
X98313298Y-48076969D01*
X98315750Y-48075066D01*
X98289155Y-48026421D01*
X98294104Y-47956726D01*
X98314940Y-47924304D01*
X98313298Y-47923031D01*
X98318075Y-47916870D01*
X98318081Y-47916865D01*
X98401744Y-47775398D01*
X98435505Y-47659191D01*
X98447597Y-47617573D01*
X98447598Y-47617567D01*
X98450499Y-47580701D01*
X98450500Y-47580694D01*
X98450500Y-47149306D01*
X98447598Y-47112431D01*
X98422490Y-47026011D01*
X98401745Y-46954606D01*
X98401744Y-46954603D01*
X98401744Y-46954602D01*
X98318081Y-46813135D01*
X98318078Y-46813132D01*
X98313298Y-46806969D01*
X98315750Y-46805066D01*
X98289155Y-46756421D01*
X98294104Y-46686726D01*
X98314940Y-46654304D01*
X98313298Y-46653031D01*
X98318075Y-46646870D01*
X98318081Y-46646865D01*
X98401744Y-46505398D01*
X98447598Y-46347569D01*
X98450500Y-46310694D01*
X98450500Y-45879306D01*
X98447598Y-45842431D01*
X98432542Y-45790609D01*
X98401597Y-45684095D01*
X98401796Y-45614226D01*
X98439738Y-45555556D01*
X98503376Y-45526712D01*
X98520673Y-45525500D01*
X101074684Y-45525500D01*
X101122136Y-45534939D01*
G37*
%TD.AperFunction*%
%TA.AperFunction,Conductor*%
G36*
X107442539Y-42519685D02*
G01*
X107488294Y-42572489D01*
X107499500Y-42624000D01*
X107499500Y-47109481D01*
X107479815Y-47176520D01*
X107427011Y-47222275D01*
X107357853Y-47232219D01*
X107294297Y-47203194D01*
X107287819Y-47197162D01*
X106836818Y-46746161D01*
X106803333Y-46684838D01*
X106800499Y-46658480D01*
X106800499Y-45952129D01*
X106800498Y-45952123D01*
X106799870Y-45946284D01*
X106794091Y-45892517D01*
X106789166Y-45879313D01*
X106743797Y-45757671D01*
X106743793Y-45757664D01*
X106657547Y-45642455D01*
X106657544Y-45642452D01*
X106542335Y-45556206D01*
X106542328Y-45556202D01*
X106407482Y-45505908D01*
X106407483Y-45505908D01*
X106347883Y-45499501D01*
X106347881Y-45499500D01*
X106347873Y-45499500D01*
X106347864Y-45499500D01*
X104852129Y-45499500D01*
X104852123Y-45499501D01*
X104792517Y-45505908D01*
X104767830Y-45515116D01*
X104698138Y-45520099D01*
X104636816Y-45486612D01*
X104603332Y-45425288D01*
X104600499Y-45398933D01*
X104600499Y-45002129D01*
X104600498Y-45002123D01*
X104594091Y-44942516D01*
X104543797Y-44807671D01*
X104543793Y-44807664D01*
X104457547Y-44692455D01*
X104457544Y-44692452D01*
X104342335Y-44606206D01*
X104342328Y-44606202D01*
X104207482Y-44555908D01*
X104207483Y-44555908D01*
X104147883Y-44549501D01*
X104147881Y-44549500D01*
X104147873Y-44549500D01*
X104147865Y-44549500D01*
X103441519Y-44549500D01*
X103374480Y-44529815D01*
X103353838Y-44513181D01*
X103121546Y-44280888D01*
X103121545Y-44280887D01*
X103006807Y-44204222D01*
X102879332Y-44151421D01*
X102879322Y-44151418D01*
X102743996Y-44124500D01*
X102743994Y-44124500D01*
X102743993Y-44124500D01*
X101925316Y-44124500D01*
X101877864Y-44115061D01*
X101733501Y-44055264D01*
X101733489Y-44055261D01*
X101578845Y-44024500D01*
X101578842Y-44024500D01*
X101421158Y-44024500D01*
X101421155Y-44024500D01*
X101266510Y-44055261D01*
X101266498Y-44055264D01*
X101122136Y-44115061D01*
X101074684Y-44124500D01*
X98520673Y-44124500D01*
X98453634Y-44104815D01*
X98407879Y-44052011D01*
X98397935Y-43982853D01*
X98401597Y-43965905D01*
X98447597Y-43807573D01*
X98447598Y-43807567D01*
X98450499Y-43770701D01*
X98450500Y-43770694D01*
X98450500Y-43339306D01*
X98447598Y-43302431D01*
X98401744Y-43144602D01*
X98318081Y-43003135D01*
X98318079Y-43003133D01*
X98318076Y-43003129D01*
X98201870Y-42886923D01*
X98201862Y-42886917D01*
X98060396Y-42803255D01*
X98060393Y-42803254D01*
X97902573Y-42757402D01*
X97902567Y-42757401D01*
X97865701Y-42754500D01*
X97865694Y-42754500D01*
X96084306Y-42754500D01*
X96084298Y-42754500D01*
X96047432Y-42757401D01*
X96047426Y-42757402D01*
X95889606Y-42803254D01*
X95889603Y-42803255D01*
X95748137Y-42886917D01*
X95748129Y-42886923D01*
X95631923Y-43003129D01*
X95631917Y-43003137D01*
X95548255Y-43144603D01*
X95548254Y-43144606D01*
X95502402Y-43302426D01*
X95502401Y-43302432D01*
X95499500Y-43339298D01*
X95499500Y-43770701D01*
X95502401Y-43807567D01*
X95502402Y-43807573D01*
X95548254Y-43965393D01*
X95548255Y-43965396D01*
X95631917Y-44106862D01*
X95636702Y-44113031D01*
X95634256Y-44114927D01*
X95660857Y-44163642D01*
X95655873Y-44233334D01*
X95635069Y-44265703D01*
X95636702Y-44266969D01*
X95631917Y-44273137D01*
X95548255Y-44414603D01*
X95548254Y-44414606D01*
X95502402Y-44572426D01*
X95502401Y-44572432D01*
X95499500Y-44609298D01*
X95499500Y-45040701D01*
X95502401Y-45077567D01*
X95502402Y-45077573D01*
X95548254Y-45235393D01*
X95548255Y-45235396D01*
X95631917Y-45376862D01*
X95636702Y-45383031D01*
X95634256Y-45384927D01*
X95660857Y-45433642D01*
X95655873Y-45503334D01*
X95635069Y-45535703D01*
X95636702Y-45536969D01*
X95631917Y-45543137D01*
X95548255Y-45684603D01*
X95548254Y-45684606D01*
X95502402Y-45842426D01*
X95502401Y-45842432D01*
X95499500Y-45879298D01*
X95499500Y-46310701D01*
X95502401Y-46347567D01*
X95502402Y-46347573D01*
X95548254Y-46505393D01*
X95548255Y-46505396D01*
X95631917Y-46646862D01*
X95636702Y-46653031D01*
X95634256Y-46654927D01*
X95660857Y-46703642D01*
X95655873Y-46773334D01*
X95635069Y-46805703D01*
X95636702Y-46806969D01*
X95631917Y-46813137D01*
X95548255Y-46954603D01*
X95548254Y-46954606D01*
X95502402Y-47112426D01*
X95502401Y-47112432D01*
X95499500Y-47149298D01*
X95499500Y-47218116D01*
X95479815Y-47285155D01*
X95427011Y-47330910D01*
X95357853Y-47340854D01*
X95294297Y-47311829D01*
X95287819Y-47305797D01*
X95236909Y-47254887D01*
X95122171Y-47178222D01*
X94994696Y-47125421D01*
X94994686Y-47125418D01*
X94859360Y-47098500D01*
X94859358Y-47098500D01*
X94859357Y-47098500D01*
X94824500Y-47098500D01*
X94757461Y-47078815D01*
X94711706Y-47026011D01*
X94700500Y-46974500D01*
X94700500Y-42931004D01*
X94700499Y-42931002D01*
X94673582Y-42795682D01*
X94673581Y-42795681D01*
X94673580Y-42795672D01*
X94669162Y-42785007D01*
X94657728Y-42757402D01*
X94622127Y-42671452D01*
X94614658Y-42601983D01*
X94645934Y-42539504D01*
X94706023Y-42503852D01*
X94736688Y-42500000D01*
X107375500Y-42500000D01*
X107442539Y-42519685D01*
G37*
%TD.AperFunction*%
%TD*%
%TA.AperFunction,NonConductor*%
G36*
X92576520Y-55720185D02*
G01*
X92622275Y-55772989D01*
X92632219Y-55842147D01*
X92603194Y-55905703D01*
X92597162Y-55912181D01*
X91037181Y-57472162D01*
X90975858Y-57505647D01*
X90906166Y-57500663D01*
X90850233Y-57458791D01*
X90825816Y-57393327D01*
X90825500Y-57384481D01*
X90825500Y-56886426D01*
X90845185Y-56819387D01*
X90880607Y-56783325D01*
X90935289Y-56746789D01*
X91046789Y-56635289D01*
X91134394Y-56504179D01*
X91194737Y-56358497D01*
X91225500Y-56203842D01*
X91225500Y-56046158D01*
X91225500Y-56046155D01*
X91225499Y-56046153D01*
X91199818Y-55917049D01*
X91194737Y-55891503D01*
X91186639Y-55871952D01*
X91179170Y-55802483D01*
X91210445Y-55740004D01*
X91270534Y-55704352D01*
X91301200Y-55700500D01*
X92509481Y-55700500D01*
X92576520Y-55720185D01*
G37*
%TD.AperFunction*%
%TA.AperFunction,NonConductor*%
G36*
X86275145Y-85534351D02*
G01*
X86323667Y-85564324D01*
X87263181Y-86503838D01*
X87296666Y-86565161D01*
X87299500Y-86591519D01*
X87299500Y-86594371D01*
X87279815Y-86661410D01*
X87227011Y-86707165D01*
X87157853Y-86717109D01*
X87137182Y-86712302D01*
X87046240Y-86682753D01*
X86884957Y-86657208D01*
X86836287Y-86649500D01*
X86623713Y-86649500D01*
X86584202Y-86655757D01*
X86413759Y-86682753D01*
X86413755Y-86682754D01*
X86341817Y-86706128D01*
X86271976Y-86708123D01*
X86212143Y-86672042D01*
X86181316Y-86609341D01*
X86179500Y-86588197D01*
X86179500Y-85910004D01*
X86152581Y-85774677D01*
X86152580Y-85774676D01*
X86152580Y-85774672D01*
X86121424Y-85699456D01*
X86113956Y-85629989D01*
X86145231Y-85567509D01*
X86205320Y-85531857D01*
X86275145Y-85534351D01*
G37*
%TD.AperFunction*%
%TA.AperFunction,NonConductor*%
G36*
X93151444Y-88653999D02*
G01*
X93190486Y-88699056D01*
X93194951Y-88707820D01*
X93319890Y-88879786D01*
X93402923Y-88962819D01*
X93436408Y-89024142D01*
X93431424Y-89093834D01*
X93389552Y-89149767D01*
X93324088Y-89174184D01*
X93315242Y-89174500D01*
X92844758Y-89174500D01*
X92777719Y-89154815D01*
X92731964Y-89102011D01*
X92722020Y-89032853D01*
X92751045Y-88969297D01*
X92757077Y-88962819D01*
X92762413Y-88957483D01*
X92840104Y-88879792D01*
X92840106Y-88879788D01*
X92840109Y-88879786D01*
X92963902Y-88709397D01*
X92965051Y-88707816D01*
X92969514Y-88699054D01*
X93017488Y-88648259D01*
X93085308Y-88631463D01*
X93151444Y-88653999D01*
G37*
%TD.AperFunction*%
%TA.AperFunction,NonConductor*%
G36*
X87266855Y-89321782D02*
G01*
X87297684Y-89384482D01*
X87299500Y-89405628D01*
X87299500Y-90513033D01*
X87279815Y-90580072D01*
X87227011Y-90625827D01*
X87157853Y-90635771D01*
X87156103Y-90635506D01*
X87086611Y-90624500D01*
X86913389Y-90624500D01*
X86843897Y-90635506D01*
X86774604Y-90626551D01*
X86721152Y-90581555D01*
X86700513Y-90514803D01*
X86700500Y-90513033D01*
X86700500Y-90430186D01*
X86673581Y-90294859D01*
X86673580Y-90294858D01*
X86673580Y-90294854D01*
X86669838Y-90285819D01*
X86657306Y-90255565D01*
X86657286Y-90255518D01*
X86620778Y-90167377D01*
X86620776Y-90167374D01*
X86620775Y-90167371D01*
X86544114Y-90052639D01*
X86544112Y-90052636D01*
X86215819Y-89724343D01*
X86201115Y-89697415D01*
X86184523Y-89671597D01*
X86183631Y-89665396D01*
X86182334Y-89663020D01*
X86179500Y-89636662D01*
X86179500Y-89411802D01*
X86199185Y-89344763D01*
X86251989Y-89299008D01*
X86321147Y-89289064D01*
X86341812Y-89293869D01*
X86413757Y-89317246D01*
X86623713Y-89350500D01*
X86623714Y-89350500D01*
X86836286Y-89350500D01*
X86836287Y-89350500D01*
X87046243Y-89317246D01*
X87137185Y-89287696D01*
X87207022Y-89285702D01*
X87266855Y-89321782D01*
G37*
%TD.AperFunction*%
M02*
