%TF.GenerationSoftware,KiCad,Pcbnew,9.0.2*%
%TF.CreationDate,2025-12-20T20:47:09+01:00*%
%TF.ProjectId,Home sensor ESP32,486f6d65-2073-4656-9e73-6f7220455350,rev?*%
%TF.SameCoordinates,Original*%
%TF.FileFunction,Soldermask,Bot*%
%TF.FilePolarity,Negative*%
%FSLAX46Y46*%
G04 Gerber Fmt 4.6, Leading zero omitted, Abs format (unit mm)*
G04 Created by KiCad (PCBNEW 9.0.2) date 2025-12-20 20:47:09*
%MOMM*%
%LPD*%
G01*
G04 APERTURE LIST*
G04 Aperture macros list*
%AMRoundRect*
0 Rectangle with rounded corners*
0 $1 Rounding radius*
0 $2 $3 $4 $5 $6 $7 $8 $9 X,Y pos of 4 corners*
0 Add a 4 corners polygon primitive as box body*
4,1,4,$2,$3,$4,$5,$6,$7,$8,$9,$2,$3,0*
0 Add four circle primitives for the rounded corners*
1,1,$1+$1,$2,$3*
1,1,$1+$1,$4,$5*
1,1,$1+$1,$6,$7*
1,1,$1+$1,$8,$9*
0 Add four rect primitives between the rounded corners*
20,1,$1+$1,$2,$3,$4,$5,0*
20,1,$1+$1,$4,$5,$6,$7,0*
20,1,$1+$1,$6,$7,$8,$9,0*
20,1,$1+$1,$8,$9,$2,$3,0*%
G04 Aperture macros list end*
%ADD10R,1.700000X1.700000*%
%ADD11C,1.700000*%
%ADD12RoundRect,0.250000X-0.625000X0.350000X-0.625000X-0.350000X0.625000X-0.350000X0.625000X0.350000X0*%
%ADD13O,1.750000X1.200000*%
%ADD14R,1.070000X1.800000*%
%ADD15O,1.070000X1.800000*%
%ADD16C,1.200000*%
%ADD17RoundRect,0.250000X-0.725000X0.600000X-0.725000X-0.600000X0.725000X-0.600000X0.725000X0.600000X0*%
%ADD18O,1.950000X1.700000*%
%ADD19RoundRect,0.250000X-0.350000X-0.625000X0.350000X-0.625000X0.350000X0.625000X-0.350000X0.625000X0*%
%ADD20O,1.200000X1.750000*%
%ADD21RoundRect,0.102000X0.700000X-0.500000X0.700000X0.500000X-0.700000X0.500000X-0.700000X-0.500000X0*%
%ADD22RoundRect,0.150000X-0.825000X-0.150000X0.825000X-0.150000X0.825000X0.150000X-0.825000X0.150000X0*%
%ADD23RoundRect,0.250000X0.350000X0.625000X-0.350000X0.625000X-0.350000X-0.625000X0.350000X-0.625000X0*%
G04 APERTURE END LIST*
D10*
%TO.C,J3*%
X73000000Y-69420000D03*
D11*
X73000000Y-71960000D03*
X73000000Y-74500000D03*
X73000000Y-77040000D03*
%TD*%
D10*
%TO.C,J5*%
X96890000Y-88000000D03*
D11*
X94350000Y-88000000D03*
X91810000Y-88000000D03*
X89270000Y-88000000D03*
X86730000Y-88000000D03*
X84190000Y-88000000D03*
X81650000Y-88000000D03*
X79110000Y-88000000D03*
%TD*%
D12*
%TO.C,SW1*%
X77950000Y-93000000D03*
D13*
X77950000Y-95000000D03*
X77950000Y-97000000D03*
%TD*%
D14*
%TO.C,D3*%
X86095000Y-113500000D03*
D15*
X87365000Y-113500000D03*
X88635000Y-113500000D03*
X89905000Y-113500000D03*
%TD*%
D16*
%TO.C,J6*%
X101500000Y-69900000D03*
D17*
X103500000Y-71500000D03*
D18*
X103500000Y-74000000D03*
X103500000Y-76500000D03*
X103500000Y-79000000D03*
%TD*%
D19*
%TO.C,J2*%
X77000000Y-112950000D03*
D20*
X79000000Y-112950000D03*
%TD*%
D21*
%TO.C,Q1*%
X103400000Y-47450000D03*
X103400000Y-45550000D03*
X105600000Y-46500000D03*
%TD*%
D22*
%TO.C,U4*%
X92025000Y-52445000D03*
X92025000Y-51175000D03*
X92025000Y-49905000D03*
X92025000Y-48635000D03*
X92025000Y-47365000D03*
X92025000Y-46095000D03*
X92025000Y-44825000D03*
X92025000Y-43555000D03*
X96975000Y-43555000D03*
X96975000Y-44825000D03*
X96975000Y-46095000D03*
X96975000Y-47365000D03*
X96975000Y-48635000D03*
X96975000Y-49905000D03*
X96975000Y-51175000D03*
X96975000Y-52445000D03*
%TD*%
D21*
%TO.C,Q2*%
X103400000Y-50950000D03*
X103400000Y-49050000D03*
X105600000Y-50000000D03*
%TD*%
D23*
%TO.C,J4*%
X93000000Y-92000000D03*
D20*
X91000000Y-92000000D03*
X89000000Y-92000000D03*
X87000000Y-92000000D03*
X85000000Y-92000000D03*
X83000000Y-92000000D03*
%TD*%
M02*
